<svg width="105" height="81" viewBox="0 0 105 81" fill="none" xmlns="http://www.w3.org/2000/svg">
<g clip-path="url(#clip0_1630_92823)">
<mask id="mask0_1630_92823" style="mask-type:luminance" maskUnits="userSpaceOnUse" x="0" y="50" width="105" height="31">
<path d="M104.23 50.7769H0V80.4199H104.23V50.7769Z" fill="#809BAE"/>
</mask>
<g mask="url(#mask0_1630_92823)">
<path d="M27.1328 50.7769H31.8757V80.4199H27.1328V50.7769ZM48.4757 70.9638C48.4757 75.5003 44.6613 75.8619 43.5266 75.8619C40.6915 75.8619 40.1757 73.2083 40.1757 71.6076V60.2626H35.4328V71.5839C35.4328 74.394 36.315 76.7133 37.8612 78.2595C39.2271 79.6266 41.2737 80.3737 43.491 80.3737C45.0633 80.3737 47.29 79.8839 48.4757 78.8014V80.4199H53.2187V60.2626H48.4757V70.9638ZM62.7044 53.1483H57.9615V60.2626H54.4044V65.0055H57.9615V80.4199H62.7044V65.0055H66.2616V60.2626H62.7044V53.1483ZM81.1978 74.3929C80.1654 75.3212 78.8017 75.8358 77.3053 75.8358C74.0067 75.8358 71.5842 73.4134 71.5842 70.0875C71.5842 66.7615 73.9297 64.4411 77.3053 64.4411C78.7756 64.4411 80.1654 64.9308 81.2245 65.8593L81.9436 66.4782L85.1416 63.2815L84.3417 62.5594C82.4599 60.8603 79.9613 59.9069 77.3042 59.9069C71.3755 59.9069 67.0702 64.185 67.0702 70.0626C67.0702 75.9154 71.4787 80.3463 77.3042 80.3463C80.0112 80.3463 82.5358 79.393 84.3934 77.6667L85.1666 76.9445L81.9193 73.7502L81.1978 74.3929ZM102.07 62.0199C100.704 60.6539 99.1035 59.9069 96.8864 59.9069C95.3141 59.9069 93.5333 60.3966 92.3472 61.478V50.7769H87.6043V80.4199H92.3472V69.3156C92.3472 64.7791 95.5702 64.4185 96.7046 64.4185C99.5399 64.4185 99.4615 67.0734 99.4615 68.6718V80.4199H104.204V68.6967C104.204 65.8865 103.618 63.5673 102.07 62.0199Z" fill="#809BAE"/>
<path d="M77.1478 66.7104C78.0573 66.7104 78.9295 67.0718 79.5726 67.7149C80.2157 68.3579 80.577 69.2302 80.577 70.1395C80.577 71.049 80.2157 71.9212 79.5726 72.5643C78.9295 73.2074 78.0573 73.5687 77.1478 73.5687C76.2384 73.5687 75.3662 73.2074 74.7232 72.5643C74.0801 71.9212 73.7188 71.049 73.7188 70.1395C73.7188 69.2302 74.0801 68.3579 74.7232 67.7149C75.3662 67.0718 76.2384 66.7104 77.1478 66.7104Z" fill="#809BAE"/>
<path d="M20.4921 72.9748C18.6887 74.8305 16.2389 75.836 13.6611 75.836C8.37758 75.836 4.53587 71.686 4.53587 65.9898C4.53587 60.2675 8.37758 56.1174 13.6611 56.1174C16.2141 56.1174 18.6365 57.1217 20.4672 58.9525L21.1881 59.6746L24.3588 56.504L23.6627 55.7819C21.034 53.0749 17.4769 51.6069 13.6611 51.6069C5.87692 51.6069 0.0253906 57.7929 0.0253906 66.0147C0.0253906 74.2115 5.90301 80.3726 13.6611 80.3726C17.5029 80.3726 21.0601 78.8785 23.6888 76.1715L24.3848 75.4494L21.2403 72.2278L20.4921 72.9748Z" fill="#809BAE"/>
</g>
<path d="M1.875 32.699H4.91757C5.60772 32.699 6.19057 32.8042 6.6661 33.0146C7.14584 33.225 7.50985 33.5364 7.75814 33.9488C8.01063 34.357 8.13687 34.8599 8.13687 35.4575C8.13687 35.8783 8.05061 36.2634 7.87807 36.6127C7.70975 36.9577 7.46566 37.2523 7.14584 37.4964C6.83021 37.7363 6.45148 37.9151 6.00961 38.033L5.66874 38.1655H2.80923L2.79661 37.1745H4.95544C5.3931 37.1745 5.75711 37.0987 6.04749 36.9472C6.33785 36.7915 6.55668 36.5832 6.70398 36.3223C6.85126 36.0614 6.9249 35.7731 6.9249 35.4575C6.9249 35.104 6.85547 34.7947 6.7166 34.5295C6.57772 34.2644 6.35889 34.0603 6.06011 33.9172C5.76553 33.7699 5.38468 33.6963 4.91757 33.6963H3.09329V41.8898H1.875V32.699ZM7.24684 41.8898L5.01225 37.7237L6.28104 37.7173L8.54717 41.814V41.8898H7.24684ZM17.4577 40.8987V41.8898H12.5909V40.8987H17.4577ZM12.8371 32.699V41.8898H11.6188V32.699H12.8371ZM16.8139 36.6505V37.6416H12.5909V36.6505H16.8139ZM17.3946 32.699V33.6963H12.5909V32.699H17.3946ZM23.7108 40.4947L26.4188 32.699H27.7381L24.3357 41.8898H23.3952L23.7108 40.4947ZM21.1795 32.699L23.8623 40.4947L24.1969 41.8898H23.2563L19.8602 32.699H21.1795ZM32.0595 32.699V41.8898H30.8412V32.699H32.0595ZM41.8917 40.8987V41.8898H37.0248V40.8987H41.8917ZM37.271 32.699V41.8898H36.0527V32.699H37.271ZM41.2478 36.6505V37.6416H37.0248V36.6505H41.2478ZM41.8285 32.699V33.6963H37.0248V32.699H41.8285ZM47.5955 39.1123L49.4199 32.699H50.3036L49.7923 35.1923L47.8291 41.8898H46.9517L47.5955 39.1123ZM45.7082 32.699L47.16 38.9861L47.5955 41.8898H46.7244L44.4962 32.699H45.7082ZM52.6644 38.9797L54.0847 32.699H55.303L53.081 41.8898H52.2099L52.6644 38.9797ZM50.4362 32.699L52.2099 39.1123L52.8538 41.8898H51.9763L50.0827 35.1923L49.5651 32.699H50.4362ZM64.2703 40.8987V41.8898H59.4035V40.8987H64.2703ZM59.6497 32.699V41.8898H58.4314V32.699H59.6497ZM63.6265 36.6505V37.6416H59.4035V36.6505H63.6265ZM64.2072 32.699V33.6963H59.4035V32.699H64.2072ZM70.0437 41.8898H68.1247L68.1373 40.8987H70.0437C70.7002 40.8987 71.2472 40.762 71.6848 40.4884C72.1225 40.2107 72.4507 39.8235 72.6696 39.3269C72.8926 38.8261 73.0041 38.2413 73.0041 37.5721V37.0103C73.0041 36.4843 72.941 36.0172 72.8148 35.609C72.6885 35.1965 72.5033 34.8494 72.2593 34.5674C72.0152 34.2812 71.7164 34.0645 71.3629 33.9172C71.0137 33.7699 70.6118 33.6963 70.1573 33.6963H68.0868V32.699H70.1573C70.7591 32.699 71.3082 32.8 71.8048 33.002C72.3013 33.1998 72.7285 33.488 73.0862 33.8667C73.4481 34.2413 73.7259 34.6958 73.9194 35.2302C74.113 35.7605 74.2098 36.358 74.2098 37.023V37.5721C74.2098 38.237 74.113 38.8367 73.9194 39.3711C73.7259 39.9014 73.446 40.3538 73.0799 40.7283C72.718 41.1028 72.2803 41.3911 71.7669 41.5931C71.2577 41.7909 70.6833 41.8898 70.0437 41.8898ZM68.7749 32.699V41.8898H67.5565V32.699H68.7749ZM89.8788 37.004V37.5848C89.8788 38.2749 89.7923 38.8935 89.6194 39.4406C89.4473 39.9876 89.1985 40.4527 88.8745 40.8356C88.5505 41.2186 88.1618 41.511 87.7069 41.713C87.2569 41.915 86.7519 42.016 86.192 42.016C85.649 42.016 85.1505 41.915 84.6956 41.713C84.2455 41.511 83.8545 41.2186 83.5216 40.8356C83.1935 40.4527 82.939 39.9876 82.758 39.4406C82.577 38.8935 82.4865 38.2749 82.4865 37.5848V37.004C82.4865 36.3139 82.5746 35.6973 82.7516 35.1545C82.9326 34.6074 83.1871 34.1424 83.5159 33.7594C83.844 33.3723 84.2334 33.0777 84.6835 32.8757C85.1375 32.6738 85.6369 32.5728 86.179 32.5728C86.739 32.5728 87.244 32.6738 87.694 32.8757C88.1489 33.0777 88.5384 33.3723 88.8624 33.7594C89.1904 34.1424 89.4409 34.6074 89.613 35.1545C89.7899 35.6973 89.8788 36.3139 89.8788 37.004ZM88.6725 37.5848V36.9914C88.6725 36.4443 88.6159 35.9604 88.502 35.5395C88.3929 35.1187 88.2305 34.7652 88.0164 34.479C87.8015 34.1929 87.5389 33.9761 87.227 33.8288C86.92 33.6816 86.5709 33.6079 86.179 33.6079C85.8009 33.6079 85.4575 33.6816 85.1505 33.8288C84.8475 33.9761 84.5865 34.1929 84.3675 34.479C84.1534 34.7652 83.987 35.1187 83.869 35.5395C83.751 35.9604 83.6921 36.4443 83.6921 36.9914V37.5848C83.6921 38.1361 83.751 38.6242 83.869 39.0492C83.987 39.47 84.155 39.8256 84.374 40.116C84.597 40.4022 84.8604 40.6189 85.1634 40.7662C85.4704 40.9135 85.813 40.9871 86.192 40.9871C86.5879 40.9871 86.9385 40.9135 87.2464 40.7662C87.5534 40.6189 87.812 40.4022 88.0229 40.116C88.237 39.8256 88.3994 39.47 88.5085 39.0492C88.6183 38.6242 88.6725 38.1361 88.6725 37.5848ZM100.55 32.699V41.8898H99.3258L94.6984 34.801V41.8898H93.48V32.699H94.6984L99.3443 39.8067V32.699H100.55Z" fill="#809BAE"/>
<path d="M9.83745 1.27814L12.0263 5.68197L16.8416 6.37731C17.2457 6.44353 17.5824 6.70843 17.7171 7.10576C17.8519 7.46999 17.7508 7.90044 17.4477 8.16533L13.9457 11.5758L14.7875 16.4101C14.8549 16.8074 14.6865 17.2048 14.3497 17.4366C14.013 17.7014 13.5753 17.7014 13.2048 17.5359L8.89462 15.2512L4.55071 17.5359C4.21396 17.7014 3.7762 17.7014 3.43947 17.4366C3.10273 17.2048 2.93437 16.8074 3.00171 16.4101L3.80988 11.5758L0.307816 8.16533C0.0384262 7.90044 -0.0625949 7.46999 0.0384262 7.10576C0.173121 6.70843 0.509858 6.44353 0.913944 6.37731L5.76296 5.68197L7.91807 1.27814C8.08647 0.91391 8.45685 0.682129 8.89462 0.682129C9.29869 0.682129 9.66907 0.91391 9.83745 1.27814Z" fill="#809BAE"/>
<path d="M31.2486 1.27814L33.4374 5.68197L38.2528 6.37731C38.6568 6.44353 38.9935 6.70843 39.1282 7.10576C39.263 7.46999 39.1619 7.90044 38.8588 8.16533L35.3568 11.5758L36.1986 16.4101C36.266 16.8074 36.0976 17.2048 35.7608 17.4366C35.4242 17.7014 34.9864 17.7014 34.6159 17.5359L30.3057 15.2512L25.9619 17.5359C25.6251 17.7014 25.1873 17.7014 24.8506 17.4366C24.5139 17.2048 24.3455 16.8074 24.4129 16.4101L25.221 11.5758L21.719 8.16533C21.4496 7.90044 21.3485 7.46999 21.4496 7.10576C21.5843 6.70843 21.921 6.44353 22.325 6.37731L27.1741 5.68197L29.3292 1.27814C29.4976 0.91391 29.868 0.682129 30.3057 0.682129C30.7098 0.682129 31.0802 0.91391 31.2486 1.27814Z" fill="#809BAE"/>
<path d="M52.6606 1.27814L54.8495 5.68197L59.6648 6.37731C60.0689 6.44353 60.4056 6.70843 60.5403 7.10576C60.675 7.46999 60.5739 7.90044 60.2709 8.16533L56.7688 11.5758L57.6107 16.4101C57.678 16.8074 57.5097 17.2048 57.1729 17.4366C56.8362 17.7014 56.3984 17.7014 56.028 17.5359L51.7178 15.2512L47.3739 17.5359C47.0371 17.7014 46.5994 17.7014 46.2627 17.4366C45.9259 17.2048 45.7575 16.8074 45.8249 16.4101L46.6331 11.5758L43.131 8.16533C42.8616 7.90044 42.7606 7.46999 42.8616 7.10576C42.9963 6.70843 43.333 6.44353 43.7371 6.37731L48.5861 5.68197L50.7413 1.27814C50.9096 0.91391 51.28 0.682129 51.7178 0.682129C52.1219 0.682129 52.4922 0.91391 52.6606 1.27814Z" fill="#809BAE"/>
<path d="M74.0718 1.27814L76.2606 5.68197L81.076 6.37731C81.48 6.44353 81.8169 6.70843 81.9519 7.10576C82.086 7.46999 81.985 7.90044 81.682 8.16533L78.18 11.5758L79.0219 16.4101C79.0892 16.8074 78.9209 17.2048 78.5841 17.4366C78.2474 17.7014 77.8096 17.7014 77.4392 17.5359L73.129 15.2512L68.7851 17.5359C68.4483 17.7014 68.0106 17.7014 67.6739 17.4366C67.3371 17.2048 67.1687 16.8074 67.2361 16.4101L68.0443 11.5758L64.5422 8.16533C64.2728 7.90044 64.1717 7.46999 64.2728 7.10576C64.4075 6.70843 64.7442 6.44353 65.1483 6.37731L69.9973 5.68197L72.1525 1.27814C72.3208 0.91391 72.6912 0.682129 73.129 0.682129C73.5331 0.682129 73.9034 0.91391 74.0718 1.27814Z" fill="#809BAE"/>
<path d="M95.4836 1.27814L97.6724 5.68197L102.488 6.37731C102.892 6.44353 103.229 6.70843 103.364 7.10576C103.498 7.46999 103.397 7.90044 103.094 8.16533L99.5922 11.5758L100.434 16.4101C100.501 16.8074 100.333 17.2048 99.9962 17.4366C99.6592 17.7014 99.2213 17.7014 98.8512 17.5359L94.5407 15.2512L90.1969 17.5359C89.86 17.7014 89.4229 17.7014 89.0859 17.4366C88.749 17.2048 88.581 16.8074 88.648 16.4101L89.456 11.5758L85.9542 8.16533C85.6851 7.90044 85.5841 7.46999 85.6851 7.10576C85.8193 6.70843 86.1562 6.44353 86.5602 6.37731L91.4097 5.68197L93.5646 1.27814C93.7327 0.91391 94.1035 0.682129 94.5407 0.682129C94.9455 0.682129 95.3155 0.91391 95.4836 1.27814Z" fill="#809BAE"/>
</g>
<defs>
<clipPath id="clip0_1630_92823">
<rect width="104.23" height="79.9905" fill="#809BAE" transform="translate(0 0.682129)"/>
</clipPath>
</defs>
</svg>
