<svg width="121" height="81" viewBox="0 0 121 81" fill="none" xmlns="http://www.w3.org/2000/svg">
<path d="M49.8428 1.85065C48.7215 2.28097 47.4822 2.80909 47.0887 3.04381C44.2953 4.74552 42.4658 6.85799 41.1281 9.96801L40.4592 11.5328L40.4002 28.4912L40.3609 45.4692H46.3609H52.3609V30.8189C52.3609 22.7602 52.4199 15.8947 52.4789 15.5621C52.5576 15.2296 52.9314 14.5842 53.3445 14.1147L54.092 13.2932L68.9642 13.2345L83.8363 13.1954V7.13183V1.06826H67.8625L51.8691 1.08782L49.8428 1.85065Z" fill="#809BAE"/>
<path d="M58.2817 18.3592C58.0063 18.5157 57.7309 18.7895 57.6522 18.9851C57.5735 19.2003 57.4948 21.5279 57.4948 24.1881L57.4751 29.0389H65.344H73.2128V30.7993C73.2128 32.4228 73.1735 32.6184 72.721 33.0487L72.2489 33.5377H64.8522H57.4751V39.5035V45.4692L66.1899 45.4106C75.3571 45.3519 75.4948 45.3323 77.6391 44.3739C80.5899 43.0438 83.0882 40.6184 83.9932 38.2321C84.9374 35.748 84.8981 36.237 84.9768 26.9265L85.0358 18.0854H71.8948C61.2128 18.1049 58.6555 18.1441 58.2817 18.3592Z" fill="#809BAE"/>
<path d="M79.9604 59.5719C79.2719 60.4521 79.2916 60.5303 80.1572 61.5866L80.6096 62.1538L81.0227 61.7235C81.2391 61.4888 81.5342 61.0976 81.6719 60.8237C81.908 60.3934 81.8686 60.2565 81.3768 59.5523C81.0817 59.122 80.767 58.7699 80.708 58.7699C80.6293 58.7699 80.2949 59.1416 79.9604 59.5719Z" fill="#809BAE"/>
<path d="M11.9739 59.5526C11.3444 59.7482 10.4788 60.159 10.046 60.4524C8.96404 61.1957 7.58699 62.7605 7.2919 63.5624C7.1542 63.9341 6.97715 64.247 6.89846 64.247C6.83945 64.247 6.60338 65.0098 6.40666 65.9292C6.11158 67.3375 6.0919 67.8656 6.26895 69.0196C6.83945 73.0294 10.0263 75.9438 14.2165 76.3155C15.2788 76.4133 15.8296 76.335 17.0296 75.9634C17.8558 75.7091 18.5247 75.4353 18.5247 75.357C18.5247 75.2592 18.6231 75.2006 18.7411 75.2006C18.8591 75.2006 19.2919 74.9658 19.7247 74.6529L20.4919 74.1248V70.4475V66.7898H17.2853H14.0985L13.8427 67.5722C13.7247 68.0025 13.6067 68.4328 13.6067 68.5502C13.6067 68.648 14.6099 68.7654 16.0263 68.7849L18.4263 68.8436L18.4853 70.78C18.5444 72.9316 18.5837 72.8534 16.9116 73.7336C16.2034 74.1052 15.6722 74.2226 14.7083 74.2226C12.2099 74.2226 10.0657 72.8534 8.98371 70.5844C8.4919 69.5673 8.45256 69.313 8.53125 67.6896C8.64928 64.8925 9.79026 62.9365 11.8952 61.8803C13.5673 61.0196 16.3608 61.2935 18.0722 62.4866L18.8985 63.0539L19.528 62.2519L20.1575 61.4695L19.6853 61.0979C18.3673 60.1003 15.4952 59.1419 13.9411 59.181C13.4886 59.181 12.6034 59.357 11.9739 59.5526Z" fill="#809BAE"/>
<path d="M63.4367 59.4156L62.5908 59.6308V62.3496V65.088L62.0597 64.5403C61.1941 63.6797 59.9941 63.2689 58.4006 63.2689C57.3777 63.2689 56.7875 63.3667 56.2957 63.6406C55.9219 63.8557 55.4105 64.11 55.1941 64.2274C54.6629 64.4621 53.758 65.5574 53.1678 66.6528C52.558 67.7677 52.4203 70.5452 52.9121 71.934C53.9351 74.7897 56.6105 76.3349 59.5613 75.7873C60.2498 75.6503 60.8203 75.4743 60.8203 75.3765C60.8203 75.2787 60.9383 75.2005 61.076 75.2005C61.2334 75.2005 61.5482 74.9853 61.8039 74.7115C62.5121 73.9682 62.7875 74.0855 62.7875 75.1222V76.022L63.6334 75.8851C64.0859 75.8068 64.4793 75.7286 64.4793 75.709C64.499 75.709 64.5383 71.9926 64.5777 67.4939C64.6367 62.1149 64.5974 59.2787 64.4597 59.2591C64.3613 59.2396 63.8892 59.3178 63.4367 59.4156ZM61.2924 66.3789C62.8662 67.8459 63.2793 70.1149 62.2957 71.797C61.3318 73.4401 59.2662 74.3203 57.5154 73.8313C56.6301 73.5965 55.3121 72.599 55.3121 72.1491C55.3121 71.9926 55.2531 71.8753 55.1547 71.8753C54.9187 71.8753 54.5252 70.3887 54.5252 69.4498C54.5252 66.7115 57.181 64.599 59.64 65.3814C60.1318 65.5379 60.8597 65.9877 61.2924 66.3789Z" fill="#809BAE"/>
<path d="M68.0982 67.7872V76.0415L68.8457 75.9046C69.2392 75.8459 69.7703 75.7872 70.026 75.7872H70.4588V72.0708V68.3545H72.9178H75.3769V67.3765V66.3985H72.9178H70.4588V64.0708C70.4588 61.8997 70.4785 61.7237 70.8523 61.6063C71.0687 61.5281 72.4654 61.5085 73.9605 61.5281L76.6556 61.5672L76.6162 60.9999C76.4982 59.4351 76.8523 59.5525 72.2293 59.5525H68.0982V67.7872Z" fill="#809BAE"/>
<path d="M114.466 63.2106C114.151 63.2693 113.522 63.6605 113.05 64.1104C110.748 66.3206 111.771 69.4893 115.017 70.2131C115.351 70.2913 116.02 70.526 116.532 70.7412C117.338 71.0737 117.476 71.2302 117.594 71.817C117.771 72.7167 117.456 73.3035 116.61 73.7143C115.745 74.125 114.801 73.9881 113.817 73.3231C113.443 73.0688 113.069 72.8537 112.991 72.8537C112.774 72.8537 111.771 73.8316 111.771 74.0272C111.771 74.1446 112.184 74.5162 112.715 74.8879C114.427 76.1397 117.142 76.1593 118.44 74.9661C120.643 72.9123 120.092 70.0957 117.24 68.7852C116.728 68.5505 116.079 68.3549 115.823 68.3549C115.548 68.3549 115.273 68.2571 115.214 68.1593C115.155 68.0419 114.938 67.9637 114.742 67.9637C114.545 67.9637 114.23 67.6703 114.014 67.2791C113.66 66.614 113.66 66.5749 114.014 65.9099C114.23 65.5187 114.604 65.1666 114.86 65.1079C115.627 64.9123 116.827 65.147 117.299 65.5969C117.889 66.1446 118.066 66.1055 118.715 65.3231L119.246 64.6776L118.46 64.0517C117.358 63.1911 116.217 62.9563 114.466 63.2106Z" fill="#809BAE"/>
<path d="M26.8655 63.7577C24.7999 64.7748 23.4032 66.9459 23.2655 69.3127C23.1672 71.5816 23.8557 73.1464 25.6852 74.7503C26.8852 75.8066 28.9508 76.3347 30.5639 76.0022C32.0196 75.6892 33.0229 75.1415 34.0262 74.0657C35.3049 72.6966 35.6983 71.699 35.718 69.7234C35.7376 68.3151 35.659 67.8848 35.2262 66.9851C34.5573 65.5963 33.4163 64.4227 32.0393 63.7772C30.5049 63.0535 28.2819 63.0535 26.8655 63.7577ZM31.036 65.6354C33.318 66.7112 34.3016 69.3714 33.259 71.5816C33.0229 72.0706 32.7672 72.4618 32.6885 72.4618C32.5901 72.4618 32.4524 72.6379 32.3934 72.853C32.3147 73.0682 32.177 73.2051 32.0786 73.1464C31.9803 73.0682 31.9016 73.1073 31.9016 73.2247C31.9016 73.3225 31.5081 73.5572 31.0163 73.7332C29.2262 74.4178 27.1606 73.7137 26.059 72.0315C25.5672 71.3078 25.5081 71.034 25.5081 69.6061C25.5081 68.0217 25.5081 68.0022 26.3147 67.0633C27.2196 65.9679 28.518 65.2247 29.5213 65.2247C29.895 65.2247 30.5835 65.4007 31.036 65.6354Z" fill="#809BAE"/>
<path d="M41.7968 63.7579C39.5345 64.8924 38.2755 67.0831 38.3149 69.9193C38.3345 71.8362 38.964 73.2249 40.4395 74.5746C41.3444 75.3961 41.6985 75.5721 43.0165 75.8851C44.669 76.2567 45.7116 76.1589 47.2263 75.4548C48.1509 75.0049 49.4493 73.7335 49.9411 72.7555C51.7903 69.1565 50.2952 65.1076 46.5575 63.5428C46.164 63.3863 45.2394 63.2689 44.3345 63.2689C43.0952 63.2689 42.6034 63.3667 41.7968 63.7579ZM45.9673 65.5966C48.2493 66.6528 49.2722 69.3716 48.2493 71.5819C47.0099 74.242 43.2329 74.8093 41.4427 72.599C40.7345 71.7188 40.6558 71.6015 40.5772 71.2885C40.105 69.4694 40.1444 68.9804 40.8722 67.5721C41.8952 65.5379 44.0591 64.7164 45.9673 65.5966Z" fill="#809BAE"/>
<path d="M90.6626 63.5033C89.2462 63.6794 88.538 64.0901 87.9478 65.0486C87.279 66.1244 87.0232 66.0266 86.9446 64.6769L86.8855 63.5425L86.0593 63.7185L85.2134 63.875V70.0364V76.2173L85.8626 76.0804C87.2987 75.787 87.1806 76.0804 87.1806 72.5791C87.1806 69.5082 87.279 68.8041 87.8888 67.4349C88.2626 66.5938 89.2659 65.8505 90.2495 65.7136C90.9773 65.5963 91.056 65.4985 91.4691 64.5009C91.7249 63.8945 91.9019 63.4055 91.8626 63.386C91.8232 63.3664 91.2921 63.4055 90.6626 63.5033Z" fill="#809BAE"/>
<path d="M97.6263 63.582C97.2525 63.7385 96.7607 64.071 96.5443 64.3448C95.9738 65.0098 95.6787 64.9512 95.6 64.1883L95.541 63.5429L94.7148 63.7189L93.8689 63.8754V70.0367C93.8689 75.8265 93.8886 76.1981 94.223 76.1003C94.4 76.0612 94.8328 75.9634 95.1869 75.8852L95.7968 75.7678L95.8755 71.5233C95.9738 66.6333 96.0722 66.2421 97.3509 65.5771C98.1377 65.1663 98.2361 65.1468 99.023 65.4206C100.459 65.9096 100.557 66.3008 100.557 71.6015V76.1199L101.521 75.9243L102.505 75.7482L102.564 71.3864C102.623 67.3375 102.662 66.9658 103.036 66.4573C103.685 65.5771 104.708 65.1663 105.613 65.401C106.99 65.7727 107.069 66.1248 107.049 71.3864C107.03 76.5306 106.912 76.1199 108.485 75.8656L109.213 75.7287V71.2103C109.193 67.005 109.174 66.6138 108.761 65.6162C107.698 63.0147 104.453 62.4866 102.407 64.5991C102.053 64.9707 101.738 65.1859 101.738 65.0881C101.738 64.9707 101.423 64.56 101.049 64.1883C100.105 63.2495 98.8853 63.0343 97.6263 63.582Z" fill="#809BAE"/>
<path d="M79.9608 63.7971L79.5083 63.8753V69.9389V76.0024L80.4526 75.8655C80.964 75.8068 81.3968 75.7286 81.4165 75.709C81.4362 75.6895 81.4755 72.9902 81.4952 69.7237L81.5149 63.7579L80.964 63.7384C80.6493 63.7188 80.1968 63.7384 79.9608 63.7971Z" fill="#809BAE"/>
</svg>
