<svg width="138" height="43" viewBox="0 0 138 43" fill="none" xmlns="http://www.w3.org/2000/svg">
<path d="M32.1556 15.5467C32.1791 17.6106 30.5399 19.2429 29.0104 19.3997C27.993 19.5038 26.9509 19.5736 25.9773 19.8592C24.6306 20.2544 23.3936 20.9223 22.4256 22.0242C21.3039 23.302 20.6764 24.7131 20.5667 26.4891C20.4591 28.2384 19.8675 29.9512 17.9727 30.5795C15.0652 31.5448 11.8124 30.1552 11.8494 26.6427C11.8651 25.192 12.8746 23.6467 14.4871 23.0388C15.352 22.7125 16.181 22.7533 17.0304 22.6319C19.5761 22.2701 21.5874 21.0415 22.8243 18.6758C23.4171 17.5429 23.7567 16.3381 23.7039 15.0312C23.6558 13.8275 23.1314 12.4218 22.4311 11.4886C21.249 9.91327 20.0669 9.03703 18.2798 8.52909C16.7828 8.10279 15.2209 8.1307 13.6556 8.64937C12.3301 9.08857 11.3407 9.89069 10.4097 10.8604C9.42139 11.8913 8.89252 13.1209 8.81072 14.5566C8.73229 15.9343 8.41744 17.2595 7.44375 18.2538C6.44655 19.2729 5.23083 19.6541 3.7507 19.4554C2.44536 19.2804 1.54675 18.6898 0.774753 17.6718C-0.384926 16.1427 -0.240387 14.0004 1.19268 12.6849C2.19214 11.7668 3.27114 11.3812 4.72215 11.2566C7.48856 11.0183 10.832 8.9769 11.4741 6.10651C11.6141 5.47831 11.7643 4.84152 11.8057 4.20257C11.9189 2.43181 12.9509 0.779165 14.7536 0.255128C17.463 -0.531998 19.5335 0.507482 20.3212 3.30054C20.4546 3.77411 20.5723 4.26379 20.6081 4.75346C20.7806 7.14921 21.9437 8.86414 23.9426 10.0851C25.2245 10.8679 26.5656 11.1332 28.0613 11.2867C30.0502 11.4897 32.067 12.993 32.1556 15.5467Z" fill="#005BAA"/>
<path d="M0.0078125 26.5074C0.0078125 24.4435 1.6661 22.8284 3.19778 22.6877C4.21628 22.5943 5.25942 22.5364 6.23646 22.2604C7.58775 21.8791 8.83258 21.2251 9.81297 20.133C10.9491 18.868 11.5934 17.4635 11.7234 15.6884C11.8511 13.9402 12.4629 12.2339 14.3642 11.6261C17.2832 10.6918 20.5201 12.1168 20.4418 15.6283C20.4092 17.079 19.3817 18.6136 17.7627 19.2041C16.8943 19.5209 16.0651 19.4715 15.2147 19.5833C12.6646 19.9182 10.6388 21.1253 9.37492 23.477C8.76872 24.6035 8.41578 25.804 8.45275 27.112C8.48748 28.3158 8.96816 29.3562 9.51381 30.3785C10.4516 32.1376 12.0191 33.1438 13.8007 33.6721C15.2931 34.1146 16.8552 34.1027 18.4261 33.6011C19.7572 33.176 20.7554 32.3856 21.6978 31.4245C22.6982 30.4043 23.2418 29.1813 23.3393 27.7455C23.4333 26.3688 23.764 25.0479 24.7488 24.0634C25.7582 23.055 26.9774 22.6867 28.4563 22.9014C29.7594 23.0904 30.6514 23.6907 31.4111 24.7172C32.5529 26.2583 32.3826 28.3995 30.9349 29.6988C29.9242 30.6063 28.8419 30.9799 27.3886 31.0894C24.6199 31.2979 21.2529 33.3037 20.5774 36.1666C20.4294 36.7938 20.2725 37.4284 20.2243 38.0673C20.09 39.8371 19.0401 41.479 17.2305 41.9836C14.5122 42.7418 12.4539 41.6798 11.6987 38.8791C11.571 38.4045 11.4589 37.9127 11.4287 37.423C11.2831 35.0263 10.1413 33.2984 8.15694 32.056C6.8841 31.2591 5.54626 30.9799 4.05157 30.8103C2.06498 30.587 0.0660766 29.0621 0.0078125 26.5074Z" fill="#005BAA"/>
<path d="M58.0031 23.4654V27.1623H40.8719V24.2216L51.621 11.2545H41.0959V7.55762H57.5832V10.4983L46.8623 23.4654H58.0031ZM73.8158 22.9613H64.7183L62.9828 27.1623H58.3362L67.0697 7.55762H71.5484L80.3099 27.1623H75.5513L73.8158 22.9613ZM72.3882 19.5165L69.281 12.0107L66.1739 19.5165H72.3882ZM90.8244 7.55762C92.5596 7.55762 94.0622 7.84702 95.331 8.42582C96.6189 9.00463 97.6079 9.8262 98.2986 10.8905C98.9885 11.9547 99.3344 13.215 99.3344 14.6714C99.3344 16.109 98.9885 17.3693 98.2986 18.4523C97.6079 19.5165 96.6189 20.338 95.331 20.9168C94.0622 21.477 92.5596 21.757 90.8244 21.757H86.8775V27.1623H82.3427V7.55762H90.8244ZM90.5725 18.0602C91.9348 18.0602 92.9706 17.7708 93.6797 17.192C94.3888 16.5945 94.7429 15.7543 94.7429 14.6714C94.7429 13.5698 94.3888 12.7296 93.6797 12.1508C92.9706 11.5532 91.9348 11.2545 90.5725 11.2545H86.8775V18.0602H90.5725ZM106.083 11.2545H99.8132V7.55762H116.888V11.2545H110.618V27.1623H106.083V11.2545ZM131.249 22.9613H122.151L120.416 27.1623H115.769L124.502 7.55762H128.981L137.743 27.1623H132.984L131.249 22.9613ZM129.821 19.5165L126.714 12.0107L123.607 19.5165H129.821Z" fill="#005BAA"/>
<path d="M41.7983 37.5484H39.8447V36.3967H45.1646V37.5484H43.2111V42.5047H41.7983V37.5484ZM52.9192 41.3703V42.5047H48.1923V36.3967H52.8058V37.531H49.5964V38.8573H52.4308V39.9568H49.5964V41.3703H52.9192ZM59.2153 42.6094C58.5932 42.6094 58.0293 42.4756 57.5234 42.208C57.0234 41.9346 56.628 41.5594 56.3374 41.0824C56.0524 40.5995 55.9101 40.0557 55.9101 39.4507C55.9101 38.8456 56.0524 38.3047 56.3374 37.8277C56.628 37.3449 57.0234 36.9696 57.5234 36.7021C58.0293 36.4287 58.5961 36.292 59.2241 36.292C59.7531 36.292 60.2298 36.385 60.6543 36.5712C61.0845 36.7574 61.445 37.0249 61.7357 37.374L60.8287 38.2116C60.4159 37.7347 59.9043 37.4961 59.2939 37.4961C58.9159 37.4961 58.5787 37.5804 58.2822 37.7492C57.9857 37.912 57.7531 38.1418 57.5845 38.4385C57.4216 38.7351 57.3403 39.0725 57.3403 39.4507C57.3403 39.8288 57.4216 40.1662 57.5845 40.4629C57.7531 40.7595 57.9857 40.9921 58.2822 41.1609C58.5787 41.3238 58.9159 41.4053 59.2939 41.4053C59.9043 41.4053 60.4159 41.1639 60.8287 40.681L61.7357 41.5187C61.445 41.8735 61.0845 42.1439 60.6543 42.3302C60.2241 42.5163 59.7444 42.6094 59.2153 42.6094ZM70.5562 36.3967V42.5047H69.1434V40.0004H66.37V42.5047H64.9573V36.3967H66.37V38.805H69.1434V36.3967H70.5562ZM79.8671 36.3967V42.5047H78.7072L75.6635 38.7963V42.5047H74.2681V36.3967H75.4367L78.4718 40.1051V36.3967H79.8671ZM86.5353 42.6094C85.9017 42.6094 85.3289 42.4727 84.8173 42.1993C84.3115 41.9258 83.9133 41.5506 83.6225 41.0736C83.3377 40.5908 83.1952 40.0498 83.1952 39.4507C83.1952 38.8515 83.3377 38.3134 83.6225 37.8365C83.9133 37.3536 84.3115 36.9755 84.8173 36.7021C85.3289 36.4287 85.9017 36.292 86.5353 36.292C87.1691 36.292 87.7389 36.4287 88.2447 36.7021C88.7505 36.9755 89.1488 37.3536 89.4396 37.8365C89.7303 38.3134 89.8756 38.8515 89.8756 39.4507C89.8756 40.0498 89.7303 40.5908 89.4396 41.0736C89.1488 41.5506 88.7505 41.9258 88.2447 42.1993C87.7389 42.4727 87.1691 42.6094 86.5353 42.6094ZM86.5353 41.4053C86.8959 41.4053 87.2214 41.3238 87.5122 41.1609C87.8029 40.9921 88.0297 40.7595 88.1924 40.4629C88.3611 40.1662 88.4453 39.8288 88.4453 39.4507C88.4453 39.0725 88.3611 38.7351 88.1924 38.4385C88.0297 38.1418 87.8029 37.912 87.5122 37.7492C87.2214 37.5804 86.8959 37.4961 86.5353 37.4961C86.1748 37.4961 85.8493 37.5804 85.5586 37.7492C85.2679 37.912 85.0383 38.1418 84.8697 38.4385C84.7069 38.7351 84.6255 39.0725 84.6255 39.4507C84.6255 39.8288 84.7069 40.1662 84.8697 40.4629C85.0383 40.7595 85.2679 40.9921 85.5586 41.1609C85.8493 41.3238 86.1748 41.4053 86.5353 41.4053ZM93.2048 36.3967H94.6176V41.3528H97.6788V42.5047H93.2048V36.3967ZM103.59 42.6094C102.956 42.6094 102.383 42.4727 101.872 42.1993C101.366 41.9258 100.968 41.5506 100.677 41.0736C100.392 40.5908 100.25 40.0498 100.25 39.4507C100.25 38.8515 100.392 38.3134 100.677 37.8365C100.968 37.3536 101.366 36.9755 101.872 36.7021C102.383 36.4287 102.956 36.292 103.59 36.292C104.223 36.292 104.793 36.4287 105.299 36.7021C105.805 36.9755 106.203 37.3536 106.494 37.8365C106.785 38.3134 106.93 38.8515 106.93 39.4507C106.93 40.0498 106.785 40.5908 106.494 41.0736C106.203 41.5506 105.805 41.9258 105.299 42.1993C104.793 42.4727 104.223 42.6094 103.59 42.6094ZM103.59 41.4053C103.951 41.4053 104.276 41.3238 104.566 41.1609C104.857 40.9921 105.084 40.7595 105.247 40.4629C105.416 40.1662 105.5 39.8288 105.5 39.4507C105.5 39.0725 105.416 38.7351 105.247 38.4385C105.084 38.1418 104.857 37.912 104.566 37.7492C104.276 37.5804 103.951 37.4961 103.59 37.4961C103.23 37.4961 102.904 37.5804 102.613 37.7492C102.323 37.912 102.093 38.1418 101.924 38.4385C101.761 38.7351 101.68 39.0725 101.68 39.4507C101.68 39.8288 101.761 40.1662 101.924 40.4629C102.093 40.7595 102.323 40.9921 102.613 41.1609C102.904 41.3238 103.23 41.4053 103.59 41.4053ZM114.384 39.3547H115.675V41.8328C115.344 42.0829 114.96 42.2748 114.524 42.4087C114.088 42.5426 113.649 42.6094 113.207 42.6094C112.573 42.6094 112.004 42.4756 111.498 42.208C110.992 41.9346 110.594 41.5594 110.303 41.0824C110.018 40.5995 109.875 40.0557 109.875 39.4507C109.875 38.8456 110.018 38.3047 110.303 37.8277C110.594 37.3449 110.994 36.9696 111.506 36.7021C112.018 36.4287 112.593 36.292 113.233 36.292C113.769 36.292 114.254 36.3822 114.69 36.5625C115.125 36.7428 115.492 37.0045 115.789 37.3478L114.881 38.1854C114.446 37.726 113.919 37.4961 113.303 37.4961C112.914 37.4961 112.568 37.5776 112.265 37.7405C111.963 37.9033 111.727 38.1331 111.559 38.4298C111.391 38.7264 111.306 39.0668 111.306 39.4507C111.306 39.8288 111.391 40.1662 111.559 40.4629C111.727 40.7595 111.96 40.9921 112.257 41.1609C112.559 41.3238 112.902 41.4053 113.286 41.4053C113.692 41.4053 114.059 41.318 114.384 41.1435V39.3547ZM119.255 36.3967H120.668V42.5047H119.255V36.3967ZM129.111 41.3703V42.5047H124.384V36.3967H128.998V37.531H125.788V38.8573H128.623V39.9568H125.788V41.3703H129.111ZM134.508 42.6094C134.026 42.6094 133.558 42.5453 133.105 42.4174C132.656 42.2836 132.297 42.112 132.023 41.9025L132.503 40.838C132.765 41.03 133.076 41.1841 133.436 41.3005C133.797 41.4169 134.157 41.475 134.518 41.475C134.919 41.475 135.215 41.4169 135.407 41.3005C135.598 41.1784 135.695 41.0184 135.695 40.8206C135.695 40.6752 135.637 40.5559 135.52 40.4629C135.41 40.364 135.264 40.2854 135.085 40.2273C134.909 40.1691 134.672 40.1051 134.369 40.0353C133.904 39.9249 133.523 39.8142 133.227 39.7037C132.93 39.5932 132.675 39.4158 132.459 39.1715C132.25 38.9271 132.145 38.6013 132.145 38.1941C132.145 37.8394 132.241 37.5193 132.433 37.2344C132.625 36.9435 132.912 36.7137 133.297 36.545C133.686 36.3763 134.16 36.292 134.718 36.292C135.108 36.292 135.488 36.3385 135.861 36.4316C136.232 36.5246 136.558 36.6585 136.837 36.833L136.401 37.9062C135.837 37.5863 135.273 37.4263 134.709 37.4263C134.314 37.4263 134.02 37.4903 133.829 37.6183C133.642 37.7462 133.549 37.9149 133.549 38.1244C133.549 38.3338 133.657 38.4909 133.872 38.5955C134.093 38.6945 134.427 38.7933 134.874 38.8923C135.34 39.0027 135.721 39.1133 136.018 39.2238C136.314 39.3343 136.567 39.5088 136.776 39.7473C136.991 39.9859 137.099 40.3088 137.099 40.7159C137.099 41.0649 137 41.3848 136.802 41.6758C136.61 41.9607 136.319 42.1875 135.93 42.3563C135.54 42.525 135.067 42.6094 134.508 42.6094Z" fill="#005BAA"/>
</svg>
