<svg width="32" height="32" viewBox="0 0 32 32" fill="none" xmlns="http://www.w3.org/2000/svg">
<g clip-path="url(#clip0_2461_70964)">
<path d="M30.27 3.78955C30.4636 3.78955 30.6493 3.86646 30.7862 4.00336C30.9231 4.14026 31 4.32594 31 4.51955V23.2096C31 23.4032 30.9231 23.5888 30.7862 23.7257C30.6493 23.8626 30.4636 23.9396 30.27 23.9396H1.72998C1.53637 23.9396 1.35071 23.8626 1.21381 23.7257C1.0769 23.5888 1 23.4032 1 23.2096V4.51955C1 4.32594 1.0769 4.14026 1.21381 4.00336C1.35071 3.86646 1.53637 3.78955 1.72998 3.78955H30.27ZM30.27 2.78955H1.72998C1.27116 2.78955 0.831152 2.97182 0.506714 3.29626C0.182276 3.62069 0 4.06073 0 4.51955V23.2096C0.00262479 23.6676 0.185712 24.1061 0.509583 24.4299C0.833453 24.7538 1.27197 24.9369 1.72998 24.9396H30.27C30.728 24.9369 31.1665 24.7538 31.4904 24.4299C31.8143 24.1061 31.9974 23.6676 32 23.2096V4.51955C32 4.06073 31.8177 3.62069 31.4933 3.29626C31.1688 2.97182 30.7288 2.78955 30.27 2.78955Z" fill="#012842"/>
<path d="M32 20.1399H0.5V21.1399H32V20.1399Z" fill="#012842"/>
<path d="M19.58 24.709H18.58V28.709H19.58V24.709Z" fill="#012842"/>
<path d="M13.42 24.709H12.42V28.709H13.42V24.709Z" fill="#012842"/>
<path d="M23.5801 29.209H8.42004C8.28744 29.209 8.1603 29.1563 8.06653 29.0625C7.97276 28.9688 7.92004 28.8416 7.92004 28.709C7.92004 28.5764 7.97276 28.4492 8.06653 28.3554C8.1603 28.2617 8.28744 28.209 8.42004 28.209H23.5801C23.7127 28.209 23.8398 28.2617 23.9336 28.3554C24.0274 28.4492 24.0801 28.5764 24.0801 28.709C24.0801 28.8416 24.0274 28.9688 23.9336 29.0625C23.8398 29.1563 23.7127 29.209 23.5801 29.209Z" fill="#012842"/>
<g clip-path="url(#clip1_2461_70964)">
<path d="M30.0574 22.9034H28.1411C27.9916 22.9034 27.8482 22.8441 27.7425 22.7384C27.6368 22.6327 27.5775 22.4893 27.5775 22.3398C27.5775 22.1904 27.6368 22.047 27.7425 21.9413C27.8482 21.8356 27.9916 21.7762 28.1411 21.7762H29.9672V9.59085H28.1411C27.9916 9.59085 27.8482 9.53147 27.7425 9.42577C27.6368 9.32008 27.5775 9.17672 27.5775 9.02724C27.5775 8.87776 27.6368 8.7344 27.7425 8.6287C27.8482 8.523 27.9916 8.46362 28.1411 8.46362H30.0574C30.3324 8.46362 30.5962 8.57288 30.7907 8.76737C30.9851 8.96185 31.0944 9.22563 31.0944 9.50068V21.9002C31.0856 22.1694 30.9725 22.4245 30.779 22.6118C30.5854 22.799 30.3267 22.9036 30.0574 22.9034Z" fill="#0066B3"/>
</g>
<g clip-path="url(#clip2_2461_70964)">
<path d="M15.8769 22.9199H13.9606C13.6855 22.9199 13.4218 22.8107 13.2273 22.6162C13.0328 22.4217 12.9235 22.1579 12.9235 21.8829V9.48334C12.9235 9.2083 13.0328 8.94452 13.2273 8.75004C13.4218 8.55555 13.6855 8.44629 13.9606 8.44629H15.8769C16.0263 8.44629 16.1697 8.50567 16.2754 8.61137C16.3811 8.71707 16.4405 8.86042 16.4405 9.0099C16.4405 9.15938 16.3811 9.30274 16.2754 9.40844C16.1697 9.51414 16.0263 9.57352 15.8769 9.57352H14.0508V21.7927H15.8769C16.0263 21.7927 16.1697 21.8521 16.2754 21.9578C16.3811 22.0635 16.4405 22.2068 16.4405 22.3563C16.4405 22.5058 16.3811 22.6492 16.2754 22.7549C16.1697 22.8606 16.0263 22.9199 15.8769 22.9199Z" fill="#0066B3"/>
</g>
<g clip-path="url(#clip3_2461_70964)">
<path d="M27.0948 15.8222C27.0538 15.7469 26.9977 15.6809 26.9299 15.6284C26.8622 15.5759 26.7843 15.538 26.7012 15.5172L26.1895 15.3892C26.1705 15.1003 26.1108 14.8154 26.0124 14.543L26.4355 14.2282C26.5702 14.1237 26.6614 13.9729 26.6913 13.8051C26.7114 13.6354 26.6695 13.4642 26.5733 13.3229L25.7172 12.2012C25.6689 12.131 25.6062 12.0718 25.5333 12.0277C25.4603 11.9836 25.3788 11.9555 25.2941 11.9454C25.21 11.932 25.124 11.9355 25.0412 11.9558C24.9584 11.976 24.8804 12.0127 24.812 12.0635L24.3889 12.3882C24.1173 12.195 23.819 12.0425 23.5033 11.9356V11.4141C23.5034 11.2435 23.4363 11.0798 23.3166 10.9583C23.1969 10.8368 23.0343 10.7672 22.8638 10.7646H21.4469C21.2746 10.7646 21.1094 10.8331 20.9876 10.9549C20.8659 11.0766 20.7974 11.2418 20.7974 11.4141V11.9356C20.5237 12.0314 20.2627 12.1603 20.0201 12.3193L19.6069 11.9749C19.5422 11.9239 19.4679 11.8864 19.3885 11.8644C19.3091 11.8424 19.2261 11.8365 19.1444 11.847C19.0586 11.8502 18.9745 11.8722 18.898 11.9113C18.8216 11.9504 18.7545 12.0057 18.7016 12.0733L17.8161 13.1753C17.7623 13.2426 17.7224 13.3198 17.6988 13.4026C17.6751 13.4854 17.6682 13.572 17.6783 13.6575C17.687 13.7417 17.7124 13.8233 17.753 13.8976C17.7935 13.9719 17.8484 14.0375 17.9145 14.0904L18.3277 14.425C18.2267 14.6948 18.1573 14.9755 18.1211 15.2613L17.6094 15.3696C17.4444 15.4095 17.3011 15.5116 17.2094 15.6546C17.1177 15.7975 17.0848 15.9704 17.1175 16.1371L17.4225 17.5244C17.4399 17.6051 17.4732 17.6814 17.5206 17.749C17.5679 17.8166 17.6282 17.874 17.698 17.918C17.7696 17.9656 17.8502 17.998 17.9348 18.0132C18.0194 18.0284 18.1063 18.0262 18.19 18.0066L18.7016 17.8983C18.849 18.1494 19.0275 18.3808 19.233 18.5871L19.0066 19.0496C18.9708 19.1249 18.9522 19.2072 18.9522 19.2906C18.9522 19.374 18.9708 19.4564 19.0066 19.5317C19.0285 19.6159 19.0691 19.6941 19.1253 19.7605C19.1815 19.827 19.2519 19.8799 19.3314 19.9155L20.5908 20.5452C20.6678 20.5812 20.7518 20.5999 20.8368 20.5999C20.9218 20.5999 21.0058 20.5812 21.0828 20.5452C21.1644 20.5202 21.2398 20.4784 21.3042 20.4225C21.3686 20.3665 21.4206 20.2977 21.4567 20.2205L21.6929 19.7482C21.8599 19.7601 22.0276 19.7601 22.1947 19.7482C22.3158 19.758 22.4376 19.758 22.5587 19.7482L22.7752 20.2303C22.8107 20.3102 22.8622 20.382 22.9265 20.4413C22.9908 20.5005 23.0666 20.5459 23.1491 20.5747C23.2209 20.5849 23.2938 20.5849 23.3656 20.5747C23.4583 20.5729 23.5493 20.5493 23.6313 20.5058L24.9202 19.9155C25.0712 19.8421 25.1901 19.7161 25.2548 19.5612C25.3193 19.4036 25.3193 19.2269 25.2548 19.0692L24.9793 18.715C25.184 18.5164 25.3655 18.2952 25.5204 18.0558L26.0321 18.1837C26.114 18.21 26.2008 18.2175 26.286 18.2056C26.3712 18.1937 26.4526 18.1626 26.5241 18.1148C26.5975 18.0704 26.6614 18.0119 26.712 17.9426C26.7627 17.8734 26.7992 17.7948 26.8193 17.7114L27.1735 16.3437C27.1958 16.2559 27.2004 16.1645 27.1868 16.075C27.1733 15.9854 27.142 15.8995 27.0948 15.8222ZM26.1108 17.3965L25.1761 17.1505L25.1269 17.2391C25.0545 17.3928 24.9655 17.538 24.8612 17.672C24.7653 17.8275 24.6495 17.9697 24.5168 18.0951C24.4063 18.212 24.2843 18.3175 24.1527 18.41L24.074 18.469L24.4676 19.394L23.3656 19.8663L22.9622 18.9807H22.8638L22.3619 19.0496H22.175H21.8208C21.6603 19.0474 21.501 19.0209 21.3485 18.9709H21.2501L20.7876 19.8466L19.7151 19.2956L20.148 18.4297L20.0693 18.3608C19.9416 18.2564 19.8231 18.1411 19.7151 18.0164C19.591 17.8919 19.482 17.7532 19.3904 17.6032C19.2993 17.4659 19.2203 17.3211 19.1542 17.1702V17.0817L18.1703 17.2588L17.944 16.0879L18.9279 15.8812V15.7632C18.9117 15.5996 18.9117 15.4348 18.9279 15.2712C18.9519 15.0933 18.9948 14.9185 19.0559 14.7497C19.0994 14.5886 19.1621 14.4333 19.2428 14.2872V14.1987L18.4851 13.5492L19.2625 12.6243L20.0103 13.2344L20.089 13.1753C20.2071 13.0868 20.3547 12.9884 20.5023 12.8998C20.6551 12.7997 20.8205 12.7203 20.9943 12.6637C21.1474 12.6016 21.3053 12.5522 21.4665 12.5161H21.5649V11.5321H22.7654V12.5161H22.8638C23.0277 12.5582 23.1887 12.6107 23.3459 12.6735C23.5469 12.7379 23.7363 12.8343 23.9068 12.9589C24.0535 13.044 24.1919 13.1428 24.32 13.2541L24.3889 13.3131L25.1957 12.7326L25.8943 13.7165L25.1269 14.3069V14.4053C25.206 14.551 25.2656 14.7065 25.304 14.8678C25.3574 15.0371 25.3904 15.2121 25.4024 15.3892C25.4118 15.517 25.4118 15.6452 25.4024 15.773C25.4086 15.7989 25.4086 15.8258 25.4024 15.8517V15.9698L26.3863 16.2453L26.1108 17.3965Z" fill="#0066B3"/>
<path d="M22.1555 13.7961C21.7663 13.7961 21.3858 13.9116 21.0622 14.1278C20.7385 14.344 20.4863 14.6514 20.3374 15.011C20.1884 15.3706 20.1494 15.7662 20.2254 16.148C20.3013 16.5297 20.4887 16.8804 20.764 17.1556C21.0392 17.4308 21.3898 17.6182 21.7715 17.6942C22.1533 17.7701 22.549 17.7311 22.9086 17.5822C23.2681 17.4332 23.5755 17.181 23.7917 16.8574C24.008 16.5338 24.1234 16.1533 24.1234 15.7641C24.1234 15.2421 23.9161 14.7416 23.547 14.3725C23.178 14.0035 22.6774 13.7961 22.1555 13.7961ZM22.1555 17.1219C21.8865 17.1239 21.623 17.0459 21.3984 16.8979C21.1738 16.7499 20.9983 16.5385 20.894 16.2905C20.7897 16.0426 20.7614 15.7693 20.8127 15.5052C20.864 15.2412 20.9925 14.9983 21.182 14.8074C21.3715 14.6166 21.6134 14.4862 21.8771 14.4331C22.1408 14.3799 22.4143 14.4062 22.663 14.5086C22.9117 14.6111 23.1243 14.7852 23.274 15.0087C23.4236 15.2322 23.5035 15.4951 23.5035 15.7641C23.5035 16.1225 23.3618 16.4664 23.1093 16.7207C22.8567 16.9751 22.5139 17.1193 22.1555 17.1219Z" fill="#0066B3"/>
</g>
</g>
<defs>
<clipPath id="clip0_2461_70964">
<rect width="32" height="32" fill="white"/>
</clipPath>
<clipPath id="clip1_2461_70964">
<path d="M27.5775 8.46362H30.1926C30.6907 8.46362 31.0944 8.86737 31.0944 9.36541V22.0017C31.0944 22.4997 30.6907 22.9034 30.1926 22.9034H27.5775V8.46362Z" fill="white"/>
</clipPath>
<clipPath id="clip2_2461_70964">
<path d="M12.9235 9.34807C12.9235 8.85003 13.3273 8.44629 13.8253 8.44629H16.4405V22.9199H13.8253C13.3273 22.9199 12.9235 22.5162 12.9235 22.0181V9.34807Z" fill="white"/>
</clipPath>
<clipPath id="clip3_2461_70964">
<rect width="10.0893" height="9.83523" fill="white" transform="translate(17.1053 10.7651)"/>
</clipPath>
</defs>
</svg>
