<svg width="100" height="101" viewBox="0 0 100 101" fill="none" xmlns="http://www.w3.org/2000/svg">
<path d="M92.5676 82.5294H91.446L88.4866 74.9078V24.6376C88.4866 24.597 88.4731 24.5565 88.4595 24.5159V24.4484L85.1082 12.8943C84.946 12.3132 83.9731 12.3132 83.8109 12.8943L80.4595 24.4484C80.446 24.4754 80.4595 24.5024 80.4595 24.5159C80.446 24.5565 80.4325 24.597 80.4325 24.6376V72.9754L76.8379 63.7457C76.8021 63.6553 76.7474 63.5736 76.6775 63.506C76.6076 63.4384 76.5241 63.3865 76.4325 63.3538L74.4731 62.6511V31.2592C74.4731 31.2186 74.4595 31.1781 74.446 31.1376V31.07L71.8649 22.1646C71.7028 21.5835 70.7298 21.5835 70.5676 22.1646L67.9866 31.07C67.9731 31.097 67.9866 31.124 67.9866 31.1376C67.9731 31.1781 67.9595 31.2186 67.9595 31.2592V60.2997L55.6352 55.8403L54.3244 49.2457C54.2926 49.0934 54.2094 48.9567 54.0889 48.8583C53.9684 48.7599 53.8178 48.7058 53.6622 48.7051H51.3785C51.0001 48.7051 50.7028 49.0024 50.7028 49.3808V60.8538H49.3244V49.3808C49.3244 49.0024 49.0271 48.7051 48.6487 48.7051H46.3514C46.0271 48.7051 45.7568 48.9348 45.6893 49.2457L44.3785 55.8403L32.0541 60.2997V31.2592C32.0527 31.1953 32.0437 31.1317 32.0271 31.07L29.446 22.1646C29.2839 21.5835 28.3109 21.5835 28.1487 22.1646L25.5676 31.07C25.5511 31.1317 25.542 31.1953 25.5406 31.2592V62.6511L23.5812 63.3538C23.392 63.4213 23.2568 63.5565 23.1758 63.7457L19.5676 72.9619V24.6376C19.5663 24.5736 19.5572 24.5101 19.5406 24.4484L16.1893 12.8943C16.0271 12.3132 15.0541 12.3132 14.892 12.8943L11.5406 24.4484C11.5241 24.5101 11.515 24.5736 11.5136 24.6376V74.8943L8.55413 82.5159H7.43251C7.05413 82.5159 6.75684 82.8132 6.75684 83.1916V88.2051C6.75684 88.5835 7.05413 88.8808 7.43251 88.8808H92.5676C92.946 88.8808 93.2433 88.5835 93.2433 88.2051V83.1916C93.2433 82.8267 92.946 82.5294 92.5676 82.5294ZM68.0001 82.5294V75.1105L71.5947 77.9348V82.5294H68.0001ZM63.0406 82.5294V71.2186L66.6487 74.043V82.5159H63.0406V82.5294ZM58.0947 82.5294V67.3403L61.6893 70.1646V82.5294H58.0947ZM53.1487 82.5294V63.4754L56.7433 66.2997V82.543H53.1487V82.5294ZM48.2028 82.5294V62.7321L48.8649 62.2186H51.3514C51.4055 62.2186 51.446 62.2051 51.5001 62.1916L51.7974 62.4213V82.543H48.2028V82.5294ZM43.2433 82.5294V66.6105L46.8514 63.7862V82.5159H43.2433V82.5294ZM38.2974 82.5294V70.5024L41.892 67.6781V82.5294H38.2974ZM33.3514 82.5294V74.3808L36.946 71.5565V82.5294H33.3514ZM28.392 82.5294V78.2592L32.0001 75.4348V82.5294H28.392ZM22.9595 82.5294L27.0541 79.3267V82.5294H22.9595ZM72.946 78.9889L77.4595 82.5294H72.946V78.9889ZM78.8649 82.5294C78.8514 82.3673 81.4055 76.1105 81.4055 76.1105C81.419 76.097 81.419 76.07 81.4325 76.0565L81.5676 75.7186H87.3514L90.0001 82.5294H78.8649ZM81.7839 39.6646H87.1352V74.3538H81.7839V39.6646ZM87.1352 35.7321V38.3132H81.7839V35.7321H87.1352ZM81.7839 34.3808V31.7997H87.1352V34.3808H81.7839ZM87.1352 30.4619H81.7839V25.3267H87.1352V30.4619ZM84.4595 15.5159L86.919 23.9619H82.0136L84.4595 15.5159ZM80.0812 75.7997L78.946 78.7321L57.7568 58.0565L75.6758 64.5294L80.0812 75.7997ZM73.1217 38.624H69.3109V36.9484H73.1217V38.624ZM73.1217 35.5835H69.3109V31.9348H73.1217V35.5835ZM69.2974 39.9754H73.1082V41.6511H69.2974V39.9754ZM71.2028 24.7862L72.892 30.5835H69.5271L71.2028 24.7862ZM69.2974 43.0024H73.1082V62.1646L69.2974 60.7862V43.0024ZM53.0947 50.0565L54.3785 56.4754C54.392 56.5159 54.419 56.543 54.4325 56.5835C54.4595 56.6646 54.4866 56.7321 54.5406 56.7997C54.5541 56.8132 54.5541 56.8267 54.5676 56.8403L78.4055 80.124L77.9731 81.2186L52.1893 61.0024C52.1352 60.9619 52.0812 60.9484 52.0271 60.9213V50.0565H53.0947ZM46.9055 50.0565H47.9731V61.2051L47.0676 61.9078L47.0541 61.9213L22.1217 81.4619L21.5947 80.124L45.4325 56.8403C45.5676 56.7186 45.6217 56.6511 45.6217 56.4754L46.9055 50.0565ZM30.7028 38.624H26.892V36.9484H30.7028V38.624ZM30.7028 35.5835H26.892V31.9348H30.7028V35.5835ZM26.8785 39.9754H30.6893V41.6511H26.8785V39.9754ZM28.7974 24.7862L30.4866 30.5835H27.1217L28.7974 24.7862ZM26.8785 43.0024H30.6893V60.7997L26.8785 62.1781V43.0024ZM24.3244 64.5294L42.2704 58.043L21.0676 78.7457L19.919 75.7997L24.3244 64.5294ZM18.2163 35.7321V38.3132H12.8649V35.7321H18.2163ZM12.8649 34.3808V31.7997H18.2163V34.3808H12.8649ZM18.2163 30.4619H12.8649V25.3267H18.2163V30.4619ZM12.8649 39.6646H18.2163V74.3538H12.8649V39.6646ZM15.5406 15.5159L18.0001 23.9619H13.0947L15.5406 15.5159ZM12.6487 75.7051H18.4325L21.0812 82.5159H10.0136L12.6487 75.7051ZM91.892 87.543H8.10819V83.8808H91.892V87.543Z" fill="#99A9B3"/>
</svg>
