<svg width="32" height="32" viewBox="0 0 32 32" fill="none" xmlns="http://www.w3.org/2000/svg">
<g clip-path="url(#clip0_2461_70731)">
<path d="M30.27 3.78955C30.4636 3.78955 30.6493 3.86646 30.7862 4.00336C30.9231 4.14026 31 4.32594 31 4.51955V23.2096C31 23.4032 30.9231 23.5888 30.7862 23.7257C30.6493 23.8626 30.4636 23.9396 30.27 23.9396H1.73001C1.5364 23.9396 1.35071 23.8626 1.21381 23.7257C1.0769 23.5888 1 23.4032 1 23.2096V4.51955C1 4.32594 1.0769 4.14026 1.21381 4.00336C1.35071 3.86646 1.5364 3.78955 1.73001 3.78955H30.27ZM30.27 2.78955H1.73001C1.27119 2.78955 0.831152 2.97182 0.506714 3.29626C0.182276 3.62069 0 4.06073 0 4.51955V23.2096C0.00262479 23.6676 0.185742 24.1061 0.509613 24.4299C0.833484 24.7538 1.272 24.9369 1.73001 24.9396H30.27C30.728 24.9369 31.1665 24.7538 31.4904 24.4299C31.8143 24.1061 31.9974 23.6676 32 23.2096V4.51955C32 4.06073 31.8177 3.62069 31.4933 3.29626C31.1688 2.97182 30.7288 2.78955 30.27 2.78955Z" fill="#012842"/>
<path d="M32 20.1394H0.5V21.1394H32V20.1394Z" fill="#012842"/>
<path d="M19.58 24.7087H18.58V28.7087H19.58V24.7087Z" fill="#012842"/>
<path d="M13.42 24.7087H12.42V28.7087H13.42V24.7087Z" fill="#012842"/>
<path d="M23.58 29.2087H8.42004C8.28744 29.2087 8.16024 29.1561 8.06647 29.0623C7.9727 28.9685 7.92004 28.8413 7.92004 28.7087C7.92004 28.5761 7.9727 28.449 8.06647 28.3552C8.16024 28.2614 8.28744 28.2087 8.42004 28.2087H23.58C23.7126 28.2087 23.8398 28.2614 23.9336 28.3552C24.0274 28.449 24.08 28.5761 24.08 28.7087C24.08 28.8413 24.0274 28.9685 23.9336 29.0623C23.8398 29.1561 23.7126 29.2087 23.58 29.2087Z" fill="#012842"/>
<g clip-path="url(#clip1_2461_70731)">
<path d="M21.4988 14.8444C21.4579 14.7691 21.4017 14.7031 21.334 14.6506C21.2663 14.5981 21.1884 14.5603 21.1052 14.5394L20.5936 14.4115C20.5745 14.1225 20.5149 13.8376 20.4165 13.5653L20.8396 13.2504C20.9743 13.1459 21.0654 12.9951 21.0954 12.8273C21.1155 12.6576 21.0735 12.4864 20.9773 12.3452L20.1213 11.2234C20.073 11.1532 20.0103 11.0941 19.9373 11.0499C19.8644 11.0058 19.7828 10.9778 19.6982 10.9676C19.614 10.9542 19.528 10.9577 19.4452 10.978C19.3624 10.9982 19.2845 11.0349 19.216 11.0857L18.7929 11.4104C18.5214 11.2172 18.223 11.0647 17.9074 10.9578V10.4363C17.9074 10.2657 17.8403 10.102 17.7207 9.98052C17.601 9.85901 17.4383 9.78945 17.2678 9.78687H15.8509C15.6787 9.78687 15.5135 9.85529 15.3917 9.97707C15.2699 10.0989 15.2015 10.264 15.2015 10.4363V10.9578C14.9278 11.0537 14.6667 11.1825 14.4242 11.3415L14.0109 10.9971C13.9462 10.9461 13.872 10.9086 13.7926 10.8866C13.7132 10.8647 13.6302 10.8587 13.5485 10.8692C13.4626 10.8725 13.3786 10.8944 13.3021 10.9335C13.2256 10.9726 13.1586 11.0279 13.1057 11.0955L12.2201 12.1976C12.1663 12.2648 12.1265 12.342 12.1028 12.4248C12.0792 12.5076 12.0722 12.5942 12.0823 12.6797C12.0911 12.7639 12.1165 12.8455 12.157 12.9198C12.1976 12.9942 12.2525 13.0597 12.3185 13.1126L12.7318 13.4472C12.6307 13.717 12.5614 13.9977 12.5251 14.2836L12.0135 14.3918C11.8484 14.4317 11.7051 14.5338 11.6135 14.6768C11.5218 14.8198 11.4889 14.9926 11.5215 15.1593L11.8265 16.5467C11.844 16.6273 11.8773 16.7036 11.9246 16.7712C11.9719 16.8388 12.0322 16.8963 12.102 16.9402C12.1737 16.9878 12.2543 17.0202 12.3389 17.0354C12.4235 17.0507 12.5103 17.0484 12.594 17.0288L13.1057 16.9206C13.253 17.1716 13.4316 17.403 13.637 17.6093L13.4107 18.0718C13.3748 18.1471 13.3563 18.2294 13.3563 18.3129C13.3563 18.3963 13.3748 18.4786 13.4107 18.5539C13.4326 18.6381 13.4732 18.7163 13.5294 18.7828C13.5856 18.8492 13.656 18.9021 13.7354 18.9377L14.9949 19.5674C15.0719 19.6034 15.1559 19.6221 15.2409 19.6221C15.3259 19.6221 15.4099 19.6034 15.4869 19.5674C15.5684 19.5424 15.6438 19.5006 15.7082 19.4447C15.7726 19.3888 15.8246 19.32 15.8608 19.2427L16.0969 18.7704C16.264 18.7823 16.4317 18.7823 16.5987 18.7704C16.7199 18.7802 16.8416 18.7802 16.9628 18.7704L17.1793 19.2525C17.2147 19.3324 17.2662 19.4042 17.3305 19.4635C17.3948 19.5227 17.4706 19.5681 17.5532 19.5969C17.625 19.6071 17.6978 19.6071 17.7696 19.5969C17.8624 19.5951 17.9534 19.5716 18.0353 19.528L19.3243 18.9377C19.4752 18.8643 19.5942 18.7383 19.6588 18.5834C19.7234 18.4258 19.7234 18.2491 19.6588 18.0915L19.3833 17.7372C19.588 17.5386 19.7696 17.3175 19.9245 17.078L20.4362 17.2059C20.5181 17.2322 20.6048 17.2397 20.69 17.2278C20.7752 17.2159 20.8566 17.1848 20.9281 17.137C21.0016 17.0926 21.0654 17.0341 21.1161 16.9649C21.1668 16.8956 21.2032 16.817 21.2233 16.7336L21.5776 15.3659C21.5999 15.2781 21.6044 15.1868 21.5909 15.0972C21.5774 15.0076 21.5461 14.9217 21.4988 14.8444ZM20.5149 16.4187L19.5801 16.1727L19.5309 16.2613C19.4586 16.415 19.3695 16.5602 19.2653 16.6942C19.1694 16.8497 19.0536 16.9919 18.9209 17.1173C18.8104 17.2342 18.6884 17.3397 18.5568 17.4322L18.4781 17.4913L18.8717 18.4162L17.7696 18.8885L17.3662 18.0029H17.2678L16.766 18.0718H16.579H16.2248C16.0643 18.0696 15.9051 18.0431 15.7525 17.9931H15.6541L15.1917 18.8688L14.1191 18.3178L14.5521 17.4519L14.4734 17.383C14.3457 17.2786 14.2271 17.1634 14.1191 17.0386C13.995 16.9141 13.886 16.7754 13.7945 16.6254C13.7034 16.4881 13.6244 16.3433 13.5583 16.1924V16.1039L12.5743 16.281L12.348 15.1101L13.332 14.9034V14.7854C13.3157 14.6218 13.3157 14.457 13.332 14.2934C13.356 14.1155 13.3989 13.9407 13.4599 13.7719C13.5034 13.6108 13.5662 13.4555 13.6469 13.3094V13.2209L12.8892 12.5715L13.6665 11.6465L14.4143 12.2566L14.4931 12.1976C14.6111 12.109 14.7587 12.0106 14.9063 11.9221C15.0592 11.8219 15.2246 11.7425 15.3983 11.6859C15.5514 11.6238 15.7094 11.5745 15.8706 11.5383H15.969V10.5544H17.1694V11.5383H17.2678C17.4317 11.5804 17.5928 11.633 17.7499 11.6957C17.951 11.7602 18.1404 11.8565 18.3108 11.9811C18.4576 12.0662 18.5959 12.1651 18.7241 12.2763L18.7929 12.3353L19.5998 11.7548L20.2984 12.7387L19.5309 13.3291V13.4275C19.6101 13.5732 19.6696 13.7287 19.708 13.89C19.7614 14.0593 19.7945 14.2343 19.8064 14.4115C19.8158 14.5392 19.8158 14.6675 19.8064 14.7952C19.8127 14.8211 19.8127 14.8481 19.8064 14.8739V14.992L20.7904 15.2675L20.5149 16.4187Z" fill="#0066B3"/>
<path d="M16.5596 12.8176C16.1704 12.8176 15.7899 12.933 15.4663 13.1493C15.1427 13.3655 14.8904 13.6729 14.7415 14.0325C14.5925 14.392 14.5536 14.7877 14.6295 15.1695C14.7054 15.5512 14.8929 15.9018 15.1681 16.1771C15.4433 16.4523 15.7939 16.6397 16.1757 16.7156C16.5574 16.7916 16.9531 16.7526 17.3127 16.6037C17.6723 16.4547 17.9796 16.2025 18.1959 15.8789C18.4121 15.5552 18.5275 15.1748 18.5275 14.7855C18.5275 14.2636 18.3202 13.7631 17.9511 13.394C17.5821 13.025 17.0815 12.8176 16.5596 12.8176ZM16.5596 16.1434C16.2906 16.1454 16.0271 16.0674 15.8025 15.9194C15.5779 15.7713 15.4024 15.56 15.2981 15.312C15.1938 15.0641 15.1655 14.7908 15.2168 14.5267C15.2681 14.2627 15.3966 14.0198 15.5861 13.8289C15.7756 13.638 16.0175 13.5077 16.2812 13.4545C16.5449 13.4013 16.8184 13.4276 17.0671 13.5301C17.3158 13.6326 17.5284 13.8066 17.6781 14.0301C17.8277 14.2536 17.9076 14.5166 17.9076 14.7855C17.9076 15.144 17.7659 15.4879 17.5134 15.7422C17.2609 15.9966 16.918 16.1408 16.5596 16.1434Z" fill="#0066B3"/>
</g>
<g clip-path="url(#clip2_2461_70731)">
<path d="M32.6044 17.8744C32.5634 17.7991 32.5073 17.7332 32.4395 17.6807C32.3718 17.6282 32.2939 17.5903 32.2108 17.5694L31.6991 17.4415C31.68 17.1525 31.6204 16.8677 31.522 16.5953L31.9451 16.2804C32.0798 16.1759 32.171 16.0252 32.2009 15.8573C32.221 15.6876 32.1791 15.5164 32.0829 15.3752L31.2268 14.2535C31.1785 14.1832 31.1158 14.1241 31.0428 14.08C30.9699 14.0359 30.8884 14.0078 30.8037 13.9976C30.7195 13.9842 30.6335 13.9877 30.5507 14.008C30.4679 14.0283 30.39 14.0649 30.3216 14.1157L29.8985 14.4404C29.6269 14.2473 29.3286 14.0948 29.0129 13.9878V13.4663C29.0129 13.2958 28.9459 13.1321 28.8262 13.0105C28.7065 12.889 28.5439 12.8195 28.3733 12.8169H26.9564C26.7842 12.8169 26.619 12.8853 26.4972 13.0071C26.3754 13.1289 26.307 13.2941 26.307 13.4663V13.9878C26.0333 14.0837 25.7723 14.2125 25.5297 14.3715L25.1165 14.0272C25.0517 13.9762 24.9775 13.9386 24.8981 13.9166C24.8187 13.8947 24.7357 13.8888 24.654 13.8992C24.5682 13.9025 24.4841 13.9244 24.4076 13.9635C24.3311 14.0026 24.2641 14.0579 24.2112 14.1256L23.3256 15.2276C23.2719 15.2948 23.232 15.3721 23.2084 15.4548C23.1847 15.5376 23.1777 15.6242 23.1879 15.7097C23.1966 15.7939 23.222 15.8756 23.2626 15.9499C23.3031 16.0242 23.358 16.0897 23.424 16.1427L23.8373 16.4772C23.7362 16.7471 23.6669 17.0277 23.6307 17.3136L23.119 17.4218C22.9539 17.4617 22.8106 17.5638 22.719 17.7068C22.6273 17.8498 22.5944 18.0226 22.627 18.1893L22.9321 19.5767C22.9495 19.6573 22.9828 19.7337 23.0301 19.8012C23.0774 19.8688 23.1378 19.9263 23.2076 19.9703C23.2792 20.0178 23.3598 20.0502 23.4444 20.0654C23.529 20.0807 23.6158 20.0784 23.6996 20.0588L24.2112 19.9506C24.3586 20.2017 24.5371 20.4331 24.7425 20.6394L24.5162 21.1018C24.4804 21.1771 24.4618 21.2595 24.4618 21.3429C24.4618 21.4263 24.4804 21.5086 24.5162 21.584C24.5381 21.6682 24.5787 21.7464 24.6349 21.8128C24.6911 21.8792 24.7615 21.9322 24.8409 21.9677L26.1004 22.5974C26.1774 22.6335 26.2614 22.6521 26.3464 22.6521C26.4314 22.6521 26.5154 22.6335 26.5924 22.5974C26.6739 22.5725 26.7494 22.5307 26.8138 22.4747C26.8782 22.4188 26.9301 22.35 26.9663 22.2727L27.2024 21.8004C27.3695 21.8124 27.5372 21.8124 27.7043 21.8004C27.8254 21.8102 27.9472 21.8102 28.0683 21.8004L28.2848 22.2826C28.3203 22.3625 28.3717 22.4343 28.436 22.4935C28.5004 22.5527 28.5762 22.5982 28.6587 22.6269C28.7305 22.6372 28.8034 22.6372 28.8751 22.6269C28.9679 22.6252 29.0589 22.6016 29.1408 22.5581L30.4298 21.9677C30.5808 21.8943 30.6997 21.7684 30.7644 21.6135C30.8289 21.4558 30.8289 21.2791 30.7644 21.1215L30.4889 20.7673C30.6935 20.5686 30.8751 20.3475 31.03 20.108L31.5417 20.2359C31.6236 20.2623 31.7104 20.2698 31.7955 20.2578C31.8807 20.2459 31.9622 20.2149 32.0337 20.1671C32.1071 20.1226 32.171 20.0641 32.2216 19.9949C32.2723 19.9256 32.3087 19.847 32.3288 19.7636L32.6831 18.3959C32.7054 18.3082 32.7099 18.2168 32.6964 18.1272C32.6829 18.0377 32.6516 17.9517 32.6044 17.8744ZM31.6204 19.4488L30.6857 19.2028L30.6364 19.2913C30.5641 19.445 30.475 19.5902 30.3708 19.7243C30.2749 19.8797 30.1591 20.022 30.0264 20.1474C29.9159 20.2643 29.7939 20.3697 29.6623 20.4622L29.5836 20.5213L29.9772 21.4462L28.8751 21.9185L28.4718 21.0329H28.3733L27.8715 21.1018H27.6846H27.3304C27.1698 21.0997 27.0106 21.0731 26.858 21.0231H26.7596L26.2972 21.8988L25.2247 21.3478L25.6576 20.4819L25.5789 20.413C25.4512 20.3086 25.3327 20.1934 25.2247 20.0687C25.1006 19.9442 24.9916 19.8055 24.9 19.6554C24.8089 19.5182 24.7299 19.3733 24.6638 19.2225V19.1339L23.6799 19.311L23.4536 18.1401L24.4375 17.9335V17.8154C24.4213 17.6518 24.4213 17.487 24.4375 17.3234C24.4615 17.1455 24.5044 16.9707 24.5654 16.8019C24.6089 16.6408 24.6717 16.4855 24.7524 16.3395V16.2509L23.9947 15.6015L24.7721 14.6766L25.5199 15.2866L25.5986 15.2276C25.7167 15.139 25.8643 15.0406 26.0119 14.9521C26.1647 14.852 26.3301 14.7726 26.5038 14.7159C26.657 14.6539 26.8149 14.6045 26.9761 14.5683H27.0745V13.5844H28.2749V14.5683H28.3733C28.5373 14.6104 28.6983 14.663 28.8555 14.7258C29.0565 14.7902 29.2459 14.8865 29.4163 15.0111C29.5631 15.0962 29.7015 15.1951 29.8296 15.3063L29.8985 15.3653L30.7053 14.7848L31.4039 15.7688L30.6364 16.3591V16.4575C30.7156 16.6032 30.7752 16.7587 30.8135 16.92C30.867 17.0893 30.9 17.2644 30.9119 17.4415C30.9213 17.5692 30.9213 17.6975 30.9119 17.8252C30.9182 17.8511 30.9182 17.8781 30.9119 17.904V18.022L31.8959 18.2975L31.6204 19.4488Z" fill="#0066B3"/>
<path d="M27.6648 15.8477C27.2755 15.8477 26.8951 15.9631 26.5714 16.1793C26.2478 16.3955 25.9956 16.7029 25.8466 17.0625C25.6977 17.4221 25.6587 17.8178 25.7347 18.1995C25.8106 18.5812 25.998 18.9319 26.2732 19.2071C26.5485 19.4823 26.8991 19.6697 27.2808 19.7457C27.6626 19.8216 28.0582 19.7826 28.4178 19.6337C28.7774 19.4847 29.0848 19.2325 29.301 18.9089C29.5173 18.5853 29.6327 18.2048 29.6327 17.8156C29.6327 17.2936 29.4253 16.7931 29.0563 16.424C28.6872 16.055 28.1867 15.8477 27.6648 15.8477ZM27.6648 19.1734C27.3958 19.1754 27.1323 19.0974 26.9077 18.9494C26.6831 18.8014 26.5075 18.59 26.4033 18.3421C26.299 18.0941 26.2707 17.8208 26.322 17.5567C26.3732 17.2927 26.5018 17.0498 26.6913 16.859C26.8808 16.6681 27.1227 16.5378 27.3864 16.4846C27.65 16.4314 27.9236 16.4577 28.1723 16.5602C28.421 16.6626 28.6336 16.8367 28.7832 17.0602C28.9329 17.2837 29.0128 17.5466 29.0128 17.8156C29.0128 18.174 28.8711 18.5179 28.6185 18.7723C28.366 19.0266 28.0232 19.1708 27.6648 19.1734Z" fill="#0066B3"/>
</g>
</g>
<defs>
<clipPath id="clip0_2461_70731">
<rect width="32" height="32" fill="white"/>
</clipPath>
<clipPath id="clip1_2461_70731">
<rect width="10.0893" height="9.83523" fill="white" transform="translate(11.5092 9.78687)"/>
</clipPath>
<clipPath id="clip2_2461_70731">
<rect width="10.0893" height="9.83523" fill="white" transform="translate(22.6147 12.8169)"/>
</clipPath>
</defs>
</svg>
