<svg width="30" height="30" viewBox="0 0 30 30" fill="none" xmlns="http://www.w3.org/2000/svg">
<g clip-path="url(#clip0_2853_50339)">
<path d="M14.8717 0.00854492C7.27488 0.00854492 7.74921 3.30296 7.74921 3.30296L7.75765 6.71608H15.0071V7.74079H4.87827C4.87827 7.74079 0.0170898 7.18947 0.0170898 14.8546C0.0170898 22.5199 4.26005 22.2481 4.26005 22.2481H6.79223V18.691C6.79223 18.691 6.65572 14.4481 10.9675 14.4481H18.1576C18.1576 14.4481 22.1973 14.5134 22.1973 10.5439V3.98059C22.1973 3.98059 22.8108 0.00854492 14.8717 0.00854492ZM10.8743 2.3038C11.0456 2.30364 11.2153 2.33727 11.3736 2.40276C11.5319 2.46824 11.6757 2.5643 11.7968 2.68544C11.918 2.80657 12.014 2.9504 12.0795 3.1087C12.145 3.267 12.1786 3.43666 12.1785 3.60797C12.1786 3.77928 12.145 3.94894 12.0795 4.10724C12.014 4.26554 11.918 4.40937 11.7968 4.53051C11.6757 4.65164 11.5319 4.7477 11.3736 4.81319C11.2153 4.87867 11.0456 4.9123 10.8743 4.91215C10.703 4.9123 10.5333 4.87867 10.375 4.81319C10.2167 4.7477 10.0729 4.65164 9.95178 4.53051C9.83064 4.40937 9.73458 4.26554 9.6691 4.10724C9.60361 3.94894 9.56998 3.77928 9.57014 3.60797C9.56998 3.43666 9.60361 3.267 9.6691 3.1087C9.73458 2.9504 9.83064 2.80657 9.95178 2.68544C10.0729 2.5643 10.2167 2.46824 10.375 2.40276C10.5333 2.33727 10.703 2.30364 10.8743 2.3038Z" fill="url(#paint0_linear_2853_50339)"/>
<path d="M15.0872 29.7776C22.684 29.7776 22.2097 26.4831 22.2097 26.4831L22.2013 23.0701H14.9517V22.0454H25.0805C25.0805 22.0454 29.9417 22.5968 29.9417 14.9314C29.9417 7.26621 25.6987 7.53806 25.6987 7.53806H23.1665V11.0949C23.1665 11.0949 23.3031 15.3379 18.9913 15.3379H11.8011C11.8011 15.3379 7.76148 15.2726 7.76148 19.2422V25.8056C7.76148 25.8056 7.14806 29.7776 15.0871 29.7776H15.0872ZM19.0846 27.4825C18.9133 27.4827 18.7436 27.4491 18.5853 27.3836C18.427 27.3181 18.2832 27.222 18.1621 27.1009C18.0409 26.9798 17.9449 26.8359 17.8794 26.6776C17.8139 26.5193 17.7803 26.3497 17.7804 26.1784C17.7802 26.0071 17.8139 25.8374 17.8793 25.6791C17.9448 25.5208 18.0409 25.3769 18.162 25.2558C18.2832 25.1346 18.427 25.0385 18.5853 24.9731C18.7436 24.9076 18.9133 24.8739 19.0846 24.8741C19.2559 24.8739 19.4256 24.9076 19.5839 24.973C19.7422 25.0385 19.886 25.1346 20.0071 25.2557C20.1283 25.3769 20.2243 25.5207 20.2898 25.679C20.3553 25.8373 20.3889 26.0069 20.3888 26.1783C20.3889 26.3496 20.3553 26.5192 20.2898 26.6775C20.2243 26.8358 20.1283 26.9797 20.0071 27.1008C19.886 27.2219 19.7422 27.318 19.5839 27.3835C19.4256 27.449 19.2559 27.4827 19.0846 27.4825Z" fill="url(#paint1_linear_2853_50339)"/>
</g>
<defs>
<linearGradient id="paint0_linear_2853_50339" x1="287.593" y1="267.764" x2="1770.57" y2="1735.95" gradientUnits="userSpaceOnUse">
<stop stop-color="#387EB8"/>
<stop offset="1" stop-color="#366994"/>
</linearGradient>
<linearGradient id="paint1_linear_2853_50339" x1="432.224" y1="465.228" x2="2024.77" y2="1970.72" gradientUnits="userSpaceOnUse">
<stop stop-color="#FFE052"/>
<stop offset="1" stop-color="#FFC331"/>
</linearGradient>
<clipPath id="clip0_2853_50339">
<rect width="30" height="29.88" fill="white"/>
</clipPath>
</defs>
</svg>
