<svg width="26" height="30" viewBox="0 0 26 30" fill="none" xmlns="http://www.w3.org/2000/svg">
<g clip-path="url(#clip0_2853_50437)">
<path d="M26 15.0026C26 13.2585 23.8431 11.6056 20.5361 10.5806C21.2992 7.16756 20.96 4.45212 19.4656 3.58275C19.1211 3.37882 18.7183 3.28222 18.2784 3.28222V4.47895C18.5222 4.47895 18.7183 4.52725 18.8826 4.61848C19.6033 5.03706 19.916 6.63091 19.6722 8.68091C19.6139 9.18536 19.5185 9.71664 19.402 10.2587C18.3632 10.0011 17.2291 9.80251 16.0367 9.67371C15.3212 8.68091 14.5793 7.77934 13.832 6.99047C15.5597 5.36442 17.1814 4.47358 18.2837 4.47358V3.27686C16.8263 3.27686 14.9185 4.32869 12.9894 6.15329C11.0603 4.33942 9.15247 3.29832 7.69507 3.29832V4.49505C8.79209 4.49505 10.4191 5.38052 12.1468 6.99583C11.4048 7.78471 10.6629 8.68091 9.95801 9.67371C8.76029 9.80251 7.62617 10.0011 6.58744 10.264C6.46555 9.72738 6.37546 9.20683 6.31186 8.70774C6.06278 6.65774 6.37016 5.0639 7.08561 4.63994C7.2446 4.54335 7.45128 4.50042 7.69507 4.50042V3.30369C7.2499 3.30369 6.84713 3.40028 6.49735 3.60421C5.00815 4.47358 4.67428 7.18366 5.44272 10.586C2.14635 11.6164 0 13.2639 0 15.0026C0 16.7467 2.15695 18.3996 5.46392 19.4246C4.70077 22.8377 5.03995 25.5532 6.53445 26.4225C6.87892 26.6265 7.2817 26.7231 7.72687 26.7231C9.18427 26.7231 11.0921 25.6712 13.0212 23.8466C14.9503 25.6605 16.8581 26.7016 18.3155 26.7016C18.7607 26.7016 19.1635 26.605 19.5133 26.4011C21.0024 25.5317 21.3363 22.8216 20.5679 19.4193C23.8536 18.3943 26 16.7414 26 15.0026ZM19.0999 11.4232C18.9038 12.1155 18.66 12.8292 18.3844 13.543C18.1671 13.1136 17.9393 12.6843 17.6902 12.255C17.4464 11.8257 17.1867 11.4071 16.927 10.9992C17.6796 11.1119 18.4056 11.2515 19.0999 11.4232ZM16.6726 17.1385C16.2593 17.863 15.8353 18.5499 15.3954 19.1885C14.6058 19.2583 13.8055 19.2958 13 19.2958C12.1998 19.2958 11.3995 19.2583 10.6152 19.1939C10.1753 18.5553 9.74603 17.8737 9.33265 17.1546C8.92988 16.4516 8.56421 15.7378 8.23033 15.0187C8.55891 14.2996 8.92988 13.5805 9.32736 12.8775C9.74073 12.153 10.1647 11.4661 10.6046 10.8275C11.3942 10.7577 12.1945 10.7202 13 10.7202C13.8002 10.7202 14.6005 10.7577 15.3848 10.8221C15.8247 11.4608 16.254 12.1423 16.6673 12.8614C17.0701 13.5644 17.4358 14.2782 17.7697 14.9973C17.4358 15.7164 17.0701 16.4355 16.6726 17.1385ZM18.3844 16.4409C18.6706 17.16 18.9144 17.8791 19.1158 18.5767C18.4215 18.7484 17.6902 18.8933 16.9323 19.006C17.192 18.5928 17.4517 18.1689 17.6955 17.7342C17.9393 17.3049 18.1671 16.8702 18.3844 16.4409ZM13.0106 22.1669C12.5177 21.6517 12.0249 21.0775 11.5373 20.4496C12.0143 20.4711 12.5018 20.4872 12.9947 20.4872C13.4929 20.4872 13.9857 20.4765 14.468 20.4496C13.991 21.0775 13.4982 21.6517 13.0106 22.1669ZM9.06767 19.006C8.31512 18.8933 7.58907 18.7538 6.89482 18.5821C7.09091 17.8898 7.33469 17.1761 7.61027 16.4623C7.82756 16.8916 8.05544 17.321 8.30453 17.7503C8.55361 18.1796 8.80799 18.5982 9.06767 19.006ZM12.9841 7.83837C13.477 8.35356 13.9698 8.92777 14.4574 9.55565C13.9804 9.53418 13.4929 9.51808 13 9.51808C12.5018 9.51808 12.009 9.52882 11.5267 9.55565C12.0037 8.92777 12.4965 8.35356 12.9841 7.83837ZM9.06237 10.9992C8.80269 11.4125 8.54301 11.8364 8.29923 12.2711C8.05544 12.7004 7.82756 13.1297 7.61027 13.5591C7.32409 12.8399 7.08031 12.1208 6.87892 11.4232C7.57318 11.2568 8.30453 11.1119 9.06237 10.9992ZM4.26621 17.7181C2.39014 16.9077 1.17652 15.8452 1.17652 15.0026C1.17652 14.1601 2.39014 13.0922 4.26621 12.2872C4.72197 12.0886 5.22014 11.9115 5.7342 11.7452C6.03628 12.797 6.43375 13.8918 6.92662 15.0134C6.43905 16.1296 6.04688 17.219 5.7501 18.2655C5.22544 18.0991 4.72727 17.9166 4.26621 17.7181ZM7.11741 25.3868C6.39666 24.9682 6.08398 23.3744 6.32776 21.3244C6.38606 20.8199 6.48145 20.2886 6.59804 19.7466C7.63677 20.0042 8.77089 20.2028 9.96331 20.3316C10.6788 21.3244 11.4207 22.2259 12.168 23.0148C10.4403 24.6409 8.81859 25.5317 7.71627 25.5317C7.47778 25.5263 7.2764 25.478 7.11741 25.3868ZM19.6881 21.2975C19.9372 23.3475 19.6298 24.9414 18.9144 25.3653C18.7554 25.4619 18.5487 25.5049 18.3049 25.5049C17.2079 25.5049 15.5809 24.6194 13.8532 23.0041C14.5952 22.2152 15.3371 21.319 16.042 20.3262C17.2397 20.1974 18.3738 19.9988 19.4126 19.7359C19.5344 20.2779 19.6298 20.7984 19.6881 21.2975ZM21.7285 17.7181C21.2727 17.9166 20.7746 18.0937 20.2605 18.2601C19.9584 17.2083 19.5609 16.1135 19.0681 14.9919C19.5556 13.8757 19.9478 12.7863 20.2446 11.7398C20.7693 11.9062 21.2674 12.0886 21.7338 12.2872C23.6099 13.0975 24.8235 14.1601 24.8235 15.0026C24.8182 15.8452 23.6046 16.9131 21.7285 17.7181Z" fill="#61DAFB"/>
<path d="M12.9947 17.455C14.3323 17.455 15.4166 16.357 15.4166 15.0025C15.4166 13.6481 14.3323 12.55 12.9947 12.55C11.6571 12.55 10.5728 13.6481 10.5728 15.0025C10.5728 16.357 11.6571 17.455 12.9947 17.455Z" fill="#61DAFB"/>
</g>
<defs>
<clipPath id="clip0_2853_50437">
<rect width="26" height="30" fill="white"/>
</clipPath>
</defs>
</svg>
