<svg width="100" height="101" viewBox="0 0 100 101" fill="none" xmlns="http://www.w3.org/2000/svg">
<path d="M65.4508 91.8434H34.5508V77.6575H65.4508V91.8434ZM36.1133 90.2809H63.8883V79.22H36.1133V90.2809Z" fill="#99A9B3"/>
<path d="M36.1133 91.8438H15.3477V79.3892H36.1133V91.8438ZM16.9102 90.2813H34.5508V80.9517H16.9102V90.2813Z" fill="#99A9B3"/>
<path d="M16.9102 91.8438H4.45703V79.3892H16.9102V91.8438ZM6.01953 90.2813H15.3477V80.9517H6.01953V90.2813ZM95.5445 91.8438H83.0914V79.3892H95.5445V91.8438ZM84.6539 90.2813H93.982V80.9517H84.6539V90.2813Z" fill="#99A9B3"/>
<path d="M31.2507 80.9515H15.3476V59.7202H31.2507V80.9515ZM16.9148 79.389H29.6882V61.2827H16.9101L16.9148 79.389Z" fill="#99A9B3"/>
<path d="M32.2461 61.2827H14.3477V56.4077H32.2461V61.2827ZM15.9102 59.7202H30.6836V57.9702H15.9102V59.7202ZM84.6539 91.8437H63.8883V79.389H84.6539V91.8437ZM65.4508 90.2812H83.0914V80.9515H65.4508V90.2812Z" fill="#99A9B3"/>
<path d="M84.6541 80.9515H68.751V59.7202H84.6541V80.9515ZM70.3182 79.389H83.0916V61.2827H70.3135L70.3182 79.389Z" fill="#99A9B3"/>
<path d="M85.6539 61.2827H67.7555V56.4077H85.6539V61.2827ZM69.318 59.7202H84.0914V57.9702H69.318V59.7202ZM44.293 79.2202H34.5508V56.4077H44.293V79.2202ZM36.1133 77.6577H42.7305V57.9702H36.1133V77.6577Z" fill="#99A9B3"/>
<path d="M44.293 57.9696H33.418V53.4509H44.293V57.9696ZM34.9805 56.4071H42.7305V55.0134H34.9805V56.4071ZM66.5836 57.9696H55.7086V53.4509H66.5836V57.9696ZM57.2711 56.4071H65.0211V55.0134H57.2711V56.4071ZM59.3164 33.8337H40.6852V29.3149H59.3164V33.8337ZM42.2477 32.2712H57.7539V30.8774H42.2477V32.2712Z" fill="#99A9B3"/>
<path d="M65.4512 79.2202H55.709V56.4077H65.4512V79.2202ZM57.2715 77.6577H63.8887V57.9702H57.2715V77.6577Z" fill="#99A9B3"/>
<path d="M57.2711 71.1171H42.7305V40.3843H57.2711V71.1171ZM44.293 69.5546H55.7086V41.9468H44.293V69.5546Z" fill="#99A9B3"/>
<path d="M57.2711 41.9464H42.7305V32.2714H57.2711V41.9464ZM44.293 40.3839H55.7086V33.8339H44.293V40.3839ZM57.2711 79.2276H42.7305V69.5542H57.2711V79.2276ZM44.293 77.6651H55.7086V71.1167H44.293V77.6651ZM57.2711 30.8776H42.7305V16.3354H57.2711V30.8776ZM44.293 29.3151H55.7086V17.8979H44.293V29.3151Z" fill="#99A9B3"/>
<path d="M54.7679 17.8981H45.2366L47.032 9.51221H52.9695L54.7679 17.8981ZM47.1679 16.3356H52.8335L51.7038 11.0747H48.2976L47.1679 16.3356ZM50.0007 27.5216C49.2262 27.5219 48.469 27.2925 47.8249 26.8624C47.1808 26.4324 46.6786 25.8209 46.382 25.1055C46.0854 24.39 46.0077 23.6027 46.1586 22.843C46.3095 22.0834 46.6823 21.3855 47.2298 20.8377C47.7774 20.29 48.4751 19.9169 49.2347 19.7657C49.9943 19.6145 50.7817 19.6919 51.4972 19.9882C52.2128 20.2846 52.8244 20.7864 53.2548 21.4304C53.6851 22.0743 53.9148 22.8315 53.9148 23.606C53.9139 24.6439 53.5014 25.6392 52.7675 26.3733C52.0337 27.1074 51.0387 27.5203 50.0007 27.5216ZM50.0007 21.2544C49.5348 21.2541 49.0794 21.3921 48.692 21.6509C48.3046 21.9097 48.0028 22.2776 47.8247 22.7081C47.6466 23.1386 47.6004 23.6123 47.6918 24.0691C47.7831 24.5259 48.0081 24.9453 48.338 25.2742C48.668 25.6031 49.0882 25.8266 49.5453 25.9165C50.0024 26.0063 50.4759 25.9585 50.9058 25.779C51.3357 25.5995 51.7027 25.2964 51.9602 24.9082C52.2177 24.5199 52.3541 24.064 52.3523 23.5981C52.3494 22.9761 52.1005 22.3804 51.6599 21.9413C51.2192 21.5022 50.6228 21.2552 50.0007 21.2544ZM36.1132 71.8841H29.6882V64.32H36.1179L36.1132 71.8841ZM31.246 70.3216H34.5507V65.8825H31.2507L31.246 70.3216ZM70.3132 71.8841H63.8882V64.32H70.3132V71.8841ZM65.446 70.3216H68.7507V65.8825H65.4507L65.446 70.3216ZM52.6929 91.8435H47.3085V83.8747H52.6929V91.8435ZM48.871 90.281H51.1304V85.4372H48.871V90.281ZM13.3757 91.8435H7.99133V83.8747H13.3757V91.8435ZM9.55383 90.281H11.8132V85.4372H9.55383V90.281ZM92.0101 91.8435H86.6257V83.8747H92.0101V91.8435ZM88.1882 90.281H90.4476V85.4372H88.1882V90.281ZM32.3132 91.8435H26.9273V83.8747H32.3132V91.8435ZM28.4898 90.281H30.7507V85.4372H28.4898V90.281ZM24.532 91.8435H19.1491V83.8747H24.532V91.8435ZM20.7101 90.281H22.9695V85.4372H20.7116L20.7101 90.281ZM80.8523 91.8435H75.4695V83.8747H80.8538L80.8523 91.8435ZM77.0304 90.281H79.2898V85.4372H77.032L77.0304 90.281ZM73.0741 91.8435H67.6882V83.8747H73.0741V91.8435ZM69.2507 90.281H71.5116V85.4372H69.2507V90.281ZM50.2491 67.8653H45.9382V43.6341H50.257L50.2491 67.8653ZM47.5007 66.3028H48.6945V45.1966H47.5007V66.3028ZM55.1382 67.8653H50.8195V43.6341H55.1382V67.8653ZM52.382 66.3028H53.5757V45.1966H52.382V66.3028ZM23.0116 77.6403H18.6929V63.031H23.0116V77.6403ZM20.2554 76.0778H21.4491V64.5935H20.2554V76.0778ZM27.9007 77.6403H23.582V63.031H27.9007V77.6403ZM25.1445 76.0778H26.3382V64.5935H25.1445V76.0778ZM76.4195 77.6403H72.1007V63.031H76.4195V77.6403ZM73.6632 76.0778H74.857V64.5935H73.6632V76.0778ZM81.3085 77.6403H76.9898V63.031H81.3085V77.6403ZM78.5523 76.0778H79.746V64.5935H78.5523V76.0778ZM61.2288 91.8435H55.8429V83.8747H61.2288V91.8435ZM57.4054 90.281H59.6663V85.4372H57.4054V90.281ZM44.1585 91.8435H38.7726V83.8747H44.1585V91.8435ZM40.3351 90.281H42.596V85.4372H40.3351V90.281Z" fill="#99A9B3"/>
</svg>
