<svg width="50" height="42" viewBox="0 0 50 42" fill="none" xmlns="http://www.w3.org/2000/svg">
<path d="M47.2969 1.92114C47.5994 1.92114 47.8895 2.04131 48.1034 2.25522C48.3173 2.46913 48.4375 2.75925 48.4375 3.06177V32.2649C48.4375 32.5674 48.3173 32.8575 48.1034 33.0714C47.8895 33.2853 47.5994 33.4055 47.2969 33.4055H2.70314C2.40063 33.4055 2.11048 33.2853 1.89657 33.0714C1.68266 32.8575 1.5625 32.5674 1.5625 32.2649V3.06177C1.5625 2.75925 1.68266 2.46913 1.89657 2.25522C2.11048 2.04131 2.40063 1.92114 2.70314 1.92114H47.2969ZM47.2969 0.358643H2.70314C1.98623 0.358643 1.29867 0.643435 0.79174 1.15037C0.284806 1.6573 0 2.34485 0 3.06177V32.2649C0.00410124 32.9805 0.290222 33.6657 0.79627 34.1718C1.30232 34.6778 1.98749 34.9639 2.70314 34.968H47.2969C48.0125 34.9639 48.6977 34.6778 49.2037 34.1718C49.7098 33.6657 49.9959 32.9805 50 32.2649V3.06177C50 2.34485 49.7152 1.6573 49.2083 1.15037C48.7013 0.643435 48.0138 0.358643 47.2969 0.358643Z" fill="#012842"/>
<path d="M50 27.4683H0.78125V29.0308H50V27.4683Z" fill="#012842"/>
<path d="M30.5937 34.6084H29.0312V40.8584H30.5937V34.6084Z" fill="#012842"/>
<path d="M20.9688 34.6084H19.4063V40.8584H20.9688V34.6084Z" fill="#012842"/>
<path d="M36.8438 41.6396H13.1563C12.9491 41.6396 12.7504 41.5573 12.6038 41.4108C12.4573 41.2643 12.3751 41.0656 12.3751 40.8584C12.3751 40.6512 12.4573 40.4525 12.6038 40.306C12.7504 40.1595 12.9491 40.0771 13.1563 40.0771H36.8438C37.051 40.0771 37.2497 40.1595 37.3962 40.306C37.5427 40.4525 37.625 40.6512 37.625 40.8584C37.625 41.0656 37.5427 41.2643 37.3962 41.4108C37.2497 41.5573 37.051 41.6396 36.8438 41.6396Z" fill="#012842"/>
<g clip-path="url(#clip0_1163_3536)">
<path d="M24.1863 12.7005C24.1402 12.6158 24.0771 12.5415 24.0009 12.4825C23.9247 12.4234 23.837 12.3808 23.7435 12.3573L23.1679 12.2134C23.1465 11.8883 23.0794 11.5679 22.9687 11.2614L23.4447 10.9072C23.5962 10.7896 23.6987 10.62 23.7325 10.4312C23.755 10.2403 23.7079 10.0477 23.5996 9.88882L22.6366 8.62689C22.5822 8.54787 22.5117 8.48133 22.4296 8.4317C22.3475 8.38207 22.2558 8.3505 22.1606 8.33909C22.0659 8.32396 21.9691 8.32792 21.876 8.35073C21.7828 8.37355 21.6952 8.41475 21.6182 8.47192L21.1422 8.83721C20.8367 8.6199 20.501 8.44836 20.1459 8.32802V7.74133C20.146 7.54947 20.0705 7.3653 19.9359 7.2286C19.8013 7.0919 19.6183 7.01365 19.4264 7.01074H17.8324C17.6386 7.01074 17.4528 7.08771 17.3158 7.22473C17.1788 7.36174 17.1018 7.54757 17.1018 7.74133V8.32802C16.7939 8.43588 16.5002 8.58085 16.2273 8.75973L15.7624 8.37229C15.6896 8.31494 15.6061 8.27267 15.5168 8.24796C15.4274 8.22325 15.3341 8.2166 15.2421 8.22839C15.1456 8.23204 15.051 8.25671 14.965 8.30068C14.8789 8.34466 14.8035 8.40687 14.744 8.48299L13.7478 9.72278C13.6873 9.7984 13.6424 9.8853 13.6158 9.97842C13.5892 10.0715 13.5814 10.169 13.5928 10.2652C13.6026 10.3599 13.6312 10.4517 13.6768 10.5353C13.7224 10.619 13.7841 10.6927 13.8585 10.7522L14.3234 11.1286C14.2097 11.4322 14.1317 11.7479 14.0909 12.0695L13.5153 12.1913C13.3296 12.2362 13.1684 12.351 13.0653 12.5119C12.9622 12.6728 12.9251 12.8672 12.9618 13.0547L13.305 14.6155C13.3246 14.7062 13.3621 14.7921 13.4153 14.8681C13.4685 14.9442 13.5364 15.0088 13.6149 15.0583C13.6955 15.1118 13.7862 15.1482 13.8814 15.1654C13.9766 15.1825 14.0742 15.18 14.1684 15.1579L14.744 15.0361C14.9098 15.3186 15.1107 15.5789 15.3418 15.811L15.0872 16.3313C15.0468 16.416 15.0259 16.5086 15.0259 16.6025C15.0259 16.6963 15.0468 16.789 15.0872 16.8737C15.1118 16.9684 15.1574 17.0564 15.2207 17.1311C15.2839 17.2059 15.3631 17.2654 15.4525 17.3054L16.8694 18.0138C16.956 18.0544 17.0505 18.0754 17.1461 18.0754C17.2417 18.0754 17.3362 18.0544 17.4228 18.0138C17.5146 17.9857 17.5994 17.9387 17.6719 17.8758C17.7443 17.8129 17.8028 17.7355 17.8435 17.6486L18.1091 17.1172C18.2971 17.1306 18.4858 17.1306 18.6737 17.1172C18.81 17.1282 18.947 17.1282 19.0833 17.1172L19.3268 17.6596C19.3667 17.7495 19.4246 17.8303 19.497 17.8969C19.5693 17.9636 19.6546 18.0147 19.7475 18.0471C19.8282 18.0586 19.9102 18.0586 19.9909 18.0471C20.0953 18.0451 20.1977 18.0185 20.2898 17.9696L21.74 17.3054C21.9098 17.2229 22.0436 17.0811 22.1163 16.9069C22.1889 16.7295 22.1889 16.5308 22.1163 16.3534L21.8064 15.9549C22.0366 15.7315 22.2409 15.4827 22.4152 15.2133L22.9908 15.3572C23.0829 15.3868 23.1806 15.3952 23.2764 15.3818C23.3722 15.3684 23.4638 15.3335 23.5443 15.2797C23.6269 15.2297 23.6987 15.1639 23.7557 15.086C23.8127 15.0081 23.8537 14.9197 23.8764 14.8258L24.2749 13.2872C24.3 13.1884 24.3051 13.0856 24.2899 12.9849C24.2747 12.8841 24.2395 12.7874 24.1863 12.7005ZM23.0794 14.4716L22.0278 14.1949L21.9724 14.2945C21.891 14.4674 21.7908 14.6307 21.6735 14.7815C21.5657 14.9564 21.4354 15.1164 21.2861 15.2575C21.1618 15.389 21.0246 15.5077 20.8765 15.6118L20.788 15.6782L21.2308 16.7187L19.9909 17.25L19.5371 16.2538H19.4264L18.8619 16.3313H18.6515H18.2531C18.0725 16.3289 17.8933 16.299 17.7217 16.2427H17.611L17.0907 17.2279L15.8842 16.608L16.3712 15.6339L16.2827 15.5564C16.139 15.4389 16.0057 15.3093 15.8842 15.169C15.7445 15.0289 15.6219 14.8729 15.5189 14.7041C15.4164 14.5497 15.3275 14.3867 15.2532 14.217V14.1174L14.1462 14.3166L13.8917 12.9994L14.9986 12.7669V12.6341C14.9803 12.45 14.9803 12.2646 14.9986 12.0806C15.0256 11.8805 15.0739 11.6838 15.1425 11.4939C15.1915 11.3127 15.2621 11.138 15.3528 10.9736V10.874L14.5005 10.1434L15.375 9.10288L16.2163 9.78919L16.3048 9.72278C16.4376 9.62315 16.6037 9.51245 16.7697 9.41283C16.9417 9.30019 17.1278 9.21086 17.3232 9.14716C17.4955 9.07733 17.6732 9.02179 17.8545 8.98112H17.9652V7.87417H19.3157V8.98112H19.4264C19.6108 9.02843 19.792 9.08759 19.9688 9.15823C20.195 9.2307 20.4081 9.33909 20.5998 9.47924C20.7649 9.57501 20.9206 9.6862 21.0647 9.81133L21.1422 9.87775L22.0499 9.22465L22.8358 10.3316L21.9724 10.9958V11.1065C22.0615 11.2703 22.1285 11.4453 22.1716 11.6267C22.2317 11.8172 22.2689 12.0142 22.2823 12.2134C22.2929 12.3571 22.2929 12.5014 22.2823 12.6451C22.2894 12.6742 22.2894 12.7046 22.2823 12.7337V12.8665L23.3893 13.1765L23.0794 14.4716Z" fill="#0066B3"/>
<path d="M18.6295 10.4207C18.1916 10.4207 17.7636 10.5505 17.3995 10.7938C17.0354 11.037 16.7517 11.3828 16.5841 11.7873C16.4165 12.1919 16.3727 12.637 16.4581 13.0665C16.5436 13.4959 16.7544 13.8904 17.064 14.2C17.3737 14.5096 17.7681 14.7205 18.1976 14.8059C18.627 14.8913 19.0722 14.8475 19.4767 14.6799C19.8812 14.5124 20.227 14.2286 20.4703 13.8645C20.7136 13.5005 20.8434 13.0724 20.8434 12.6346C20.8434 12.0474 20.6102 11.4843 20.195 11.0691C19.7798 10.6539 19.2167 10.4207 18.6295 10.4207ZM18.6295 14.1622C18.3269 14.1643 18.0305 14.0766 17.7778 13.9101C17.5251 13.7436 17.3276 13.5058 17.2103 13.2269C17.093 12.9479 17.0612 12.6404 17.1189 12.3434C17.1766 12.0463 17.3212 11.7731 17.5343 11.5584C17.7475 11.3436 18.0197 11.197 18.3163 11.1372C18.6129 11.0773 18.9207 11.1069 19.2004 11.2222C19.4802 11.3375 19.7194 11.5333 19.8878 11.7847C20.0561 12.0362 20.146 12.332 20.146 12.6346C20.146 13.0378 19.9866 13.4247 19.7025 13.7108C19.4184 13.997 19.0327 14.1592 18.6295 14.1622Z" fill="#0066B3"/>
</g>
<g clip-path="url(#clip1_1163_3536)">
<path d="M36.6798 16.1087C36.6337 16.024 36.5706 15.9498 36.4943 15.8907C36.4181 15.8316 36.3305 15.789 36.237 15.7655L35.6614 15.6216C35.6399 15.2965 35.5728 14.9761 35.4621 14.6696L35.9381 14.3154C36.0897 14.1978 36.1922 14.0282 36.2259 13.8394C36.2485 13.6485 36.2013 13.4559 36.0931 13.297L35.13 12.0351C35.0757 11.9561 35.0051 11.8895 34.9231 11.8399C34.841 11.7903 34.7493 11.7587 34.6541 11.7473C34.5594 11.7322 34.4626 11.7361 34.3695 11.7589C34.2763 11.7817 34.1886 11.823 34.1116 11.8801L33.6357 12.2454C33.3301 12.0281 32.9945 11.8566 32.6394 11.7362V11.1495C32.6394 10.9577 32.564 10.7735 32.4294 10.6368C32.2947 10.5001 32.1117 10.4219 31.9199 10.4189H30.3259C30.1321 10.4189 29.9463 10.4959 29.8093 10.6329C29.6722 10.7699 29.5953 10.9558 29.5953 11.1495V11.7362C29.2873 11.8441 28.9937 11.9891 28.7208 12.1679L28.2559 11.7805C28.1831 11.7231 28.0996 11.6809 28.0102 11.6562C27.9209 11.6315 27.8275 11.6248 27.7356 11.6366C27.6391 11.6402 27.5445 11.6649 27.4584 11.7089C27.3724 11.7529 27.297 11.8151 27.2375 11.8912L26.2412 13.131C26.1807 13.2066 26.1359 13.2935 26.1093 13.3866C26.0827 13.4797 26.0748 13.5772 26.0862 13.6734C26.0961 13.7681 26.1246 13.8599 26.1703 13.9436C26.2159 14.0272 26.2776 14.1009 26.3519 14.1604L26.8168 14.5368C26.7032 14.8404 26.6252 15.1561 26.5844 15.4777L26.0088 15.5995C25.8231 15.6444 25.6618 15.7593 25.5587 15.9201C25.4556 16.081 25.4186 16.2754 25.4553 16.4629L25.7985 18.0237C25.8181 18.1144 25.8556 18.2003 25.9088 18.2763C25.962 18.3524 26.0299 18.417 26.1084 18.4665C26.189 18.52 26.2796 18.5564 26.3748 18.5736C26.47 18.5907 26.5677 18.5882 26.6619 18.5661L27.2375 18.4443C27.4033 18.7268 27.6041 18.9872 27.8352 19.2192L27.5806 19.7395C27.5403 19.8242 27.5194 19.9169 27.5194 20.0107C27.5194 20.1045 27.5403 20.1972 27.5806 20.2819C27.6053 20.3766 27.6509 20.4646 27.7141 20.5393C27.7774 20.6141 27.8566 20.6736 27.9459 20.7136L29.3628 21.422C29.4495 21.4626 29.5439 21.4836 29.6396 21.4836C29.7352 21.4836 29.8297 21.4626 29.9163 21.422C30.0081 21.394 30.0929 21.3469 30.1654 21.284C30.2378 21.2211 30.2963 21.1437 30.337 21.0568L30.6026 20.5254C30.7906 20.5388 30.9792 20.5388 31.1672 20.5254C31.3035 20.5364 31.4404 20.5364 31.5767 20.5254L31.8203 21.0678C31.8602 21.1577 31.9181 21.2385 31.9904 21.3051C32.0628 21.3718 32.148 21.4229 32.2409 21.4553C32.3217 21.4668 32.4036 21.4668 32.4844 21.4553C32.5887 21.4533 32.6912 21.4267 32.7833 21.3778L34.2334 20.7136C34.4032 20.6311 34.5371 20.4894 34.6098 20.3151C34.6824 20.1377 34.6824 19.939 34.6098 19.7616L34.2998 19.3631C34.5301 19.1397 34.7343 18.8909 34.9086 18.6215L35.4843 18.7654C35.5764 18.795 35.674 18.8034 35.7699 18.79C35.8657 18.7766 35.9573 18.7417 36.0378 18.6879C36.1203 18.6379 36.1922 18.5721 36.2492 18.4942C36.3062 18.4163 36.3472 18.3279 36.3698 18.234L36.7684 16.6954C36.7935 16.5966 36.7986 16.4938 36.7833 16.3931C36.7681 16.2923 36.7329 16.1956 36.6798 16.1087ZM35.5728 17.8798L34.5212 17.6031L34.4659 17.7027C34.3845 17.8756 34.2843 18.0389 34.167 18.1897C34.0592 18.3646 33.9289 18.5246 33.7796 18.6657C33.6553 18.7972 33.518 18.9159 33.37 19.02L33.2814 19.0864L33.7242 20.1269L32.4844 20.6583L32.0306 19.662H31.9199L31.3553 19.7395H31.145H30.7465C30.566 19.7371 30.3868 19.7072 30.2152 19.6509H30.1045L29.5842 20.6361L28.3776 20.0162L28.8647 19.0421L28.7762 18.9646C28.6325 18.8471 28.4991 18.7175 28.3776 18.5772C28.238 18.4371 28.1154 18.2811 28.0124 18.1123C27.9099 17.9579 27.821 17.7949 27.7467 17.6252V17.5256L26.6397 17.7248L26.3851 16.4076L27.4921 16.1751V16.0423C27.4738 15.8582 27.4738 15.6728 27.4921 15.4888C27.5191 15.2887 27.5673 15.092 27.636 14.9021C27.6849 14.7209 27.7556 14.5462 27.8463 14.3818V14.2822L26.9939 13.5516L27.8684 12.5111L28.7097 13.1974L28.7983 13.131C28.9311 13.0314 29.0972 12.9207 29.2632 12.821C29.4352 12.7084 29.6213 12.6191 29.8167 12.5554C29.9889 12.4855 30.1666 12.43 30.348 12.3893H30.4587V11.2824H31.8092V12.3893H31.9199C32.1043 12.4366 32.2855 12.4958 32.4623 12.5664C32.6885 12.6389 32.9015 12.7473 33.0933 12.8874C33.2584 12.9832 33.414 13.0944 33.5582 13.2195L33.6357 13.286L34.5434 12.6328L35.3293 13.7398L34.4659 14.404V14.5147C34.5549 14.6785 34.6219 14.8535 34.6651 15.0349C34.7252 15.2254 34.7624 15.4224 34.7758 15.6216C34.7864 15.7653 34.7864 15.9096 34.7758 16.0533C34.7829 16.0824 34.7829 16.1128 34.7758 16.1419V16.2747L35.8828 16.5847L35.5728 17.8798Z" fill="#0066B3"/>
<path d="M31.1227 13.8289C30.6848 13.8289 30.2568 13.9587 29.8927 14.202C29.5286 14.4452 29.2448 14.791 29.0773 15.1955C28.9097 15.6001 28.8659 16.0452 28.9513 16.4747C29.0367 16.9041 29.2476 17.2986 29.5572 17.6082C29.8668 17.9178 30.2613 18.1287 30.6907 18.2141C31.1202 18.2996 31.5653 18.2557 31.9699 18.0881C32.3744 17.9206 32.7202 17.6368 32.9635 17.2727C33.2067 16.9087 33.3366 16.4806 33.3366 16.0428C33.3366 15.4556 33.1033 14.8925 32.6881 14.4773C32.2729 14.0621 31.7098 13.8289 31.1227 13.8289ZM31.1227 17.5704C30.8201 17.5725 30.5236 17.4848 30.271 17.3183C30.0183 17.1518 29.8208 16.914 29.7035 16.6351C29.5862 16.3561 29.5543 16.0486 29.612 15.7516C29.6697 15.4545 29.8143 15.1813 30.0275 14.9666C30.2407 14.7518 30.5129 14.6052 30.8095 14.5454C31.1061 14.4855 31.4138 14.5151 31.6936 14.6304C31.9734 14.7457 32.2126 14.9415 32.381 15.1929C32.5493 15.4444 32.6392 15.7402 32.6392 16.0428C32.6392 16.446 32.4798 16.8329 32.1957 17.119C31.9116 17.4052 31.5259 17.5674 31.1227 17.5704Z" fill="#0066B3"/>
</g>
<defs>
<clipPath id="clip0_1163_3536">
<rect width="11.3504" height="11.0646" fill="white" transform="translate(12.948 7.01074)"/>
</clipPath>
<clipPath id="clip1_1163_3536">
<rect width="11.3504" height="11.0646" fill="white" transform="translate(25.4415 10.4189)"/>
</clipPath>
</defs>
</svg>
