<svg width="50" height="50" viewBox="0 0 50 50" fill="none" xmlns="http://www.w3.org/2000/svg">
<path d="M4.66381 28.8651C4.45662 28.8651 4.25788 28.7828 4.11138 28.6363C3.96488 28.4898 3.88261 28.2911 3.88261 28.0839C3.8765 23.9827 5.11205 19.9757 7.42674 16.5901C9.74143 13.2045 13.0268 10.599 16.8506 9.11622C16.947 9.08198 17.0492 9.06739 17.1513 9.07331C17.2534 9.07922 17.3533 9.10553 17.445 9.15068C17.5368 9.19583 17.6185 9.25889 17.6855 9.33616C17.7525 9.41343 17.8033 9.50333 17.8349 9.60057C17.8694 9.69799 17.8843 9.80128 17.8785 9.90446C17.8728 10.0076 17.8466 10.1087 17.8016 10.2017C17.7565 10.2947 17.6935 10.3778 17.6161 10.4463C17.5387 10.5147 17.4484 10.5672 17.3506 10.6005C13.8106 11.9411 10.772 14.3441 8.65167 17.4798C6.53132 20.6156 5.43304 24.3306 5.50748 28.1152C5.50361 28.2206 5.47845 28.3241 5.43348 28.4195C5.38851 28.5149 5.32465 28.6003 5.24581 28.6703C5.16697 28.7404 5.07482 28.7938 4.97479 28.8273C4.87476 28.8608 4.76895 28.8736 4.66381 28.8651Z" fill="#012842"/>
<path d="M45.2894 28.8658C45.0822 28.8658 44.8835 28.7835 44.737 28.637C44.5905 28.4905 44.5082 28.2918 44.5082 28.0846C44.5334 24.3063 43.4077 20.6098 41.281 17.4868C39.1543 14.3637 36.1274 11.9621 32.6026 10.6012C32.4058 10.5349 32.2434 10.3931 32.1511 10.2071C32.0588 10.021 32.0441 9.80589 32.1104 9.60906C32.1767 9.41223 32.3185 9.2498 32.5046 9.1575C32.6906 9.06521 32.9058 9.0506 33.1026 9.1169C36.9314 10.6016 40.2202 13.2119 42.5353 16.6037C44.8504 19.9955 46.083 24.0093 46.0706 28.1158C46.0706 28.323 45.9883 28.5217 45.8418 28.6682C45.6953 28.8148 45.4966 28.8971 45.2894 28.8971V28.8658Z" fill="#012842"/>
<path d="M24.852 49.0412C20.8882 49.0381 16.9996 47.9579 13.6021 45.9162C13.4301 45.8002 13.3113 45.6206 13.2717 45.417C13.2322 45.2133 13.2752 45.0023 13.3912 44.8303C13.5072 44.6583 13.6868 44.5395 13.8905 44.5C14.0941 44.4604 14.3052 44.5034 14.4772 44.6194C17.5133 46.5486 21.0361 47.5731 24.6333 47.5731C28.2306 47.5731 31.7534 46.5486 34.7895 44.6194C34.876 44.5627 34.9731 44.5242 35.0749 44.506C35.1768 44.4879 35.2812 44.4906 35.3819 44.514C35.4827 44.5374 35.5777 44.5809 35.6612 44.642C35.7446 44.7031 35.8148 44.7804 35.8675 44.8694C35.9791 45.0435 36.0171 45.2548 35.9732 45.4569C35.9293 45.659 35.807 45.8354 35.6332 45.9475C32.4133 47.9973 28.669 49.0718 24.852 49.0412Z" fill="#012842"/>
<path d="M31.5558 28.2114C31.5642 28.284 31.5642 28.3574 31.5558 28.43V27.7273C31.5651 27.8885 31.5651 28.0501 31.5558 28.2114Z" fill="#0066B3"/>
<g clip-path="url(#clip0_3005_3624)">
<path d="M31.9293 28.407C31.8719 28.3016 31.7934 28.2093 31.6986 28.1358C31.6038 28.0623 31.4948 28.0093 31.3784 27.9801L30.6624 27.8011C30.6357 27.3966 30.5522 26.998 30.4145 26.6168L31.0066 26.1761C31.1952 26.0299 31.3227 25.8189 31.3646 25.584C31.3927 25.3465 31.3341 25.1069 31.1994 24.9092L30.0014 23.3394C29.9338 23.2411 29.846 23.1583 29.7439 23.0965C29.6418 23.0348 29.5277 22.9955 29.4092 22.9813C29.2914 22.9625 29.1711 22.9674 29.0552 22.9958C28.9393 23.0242 28.8302 23.0755 28.7345 23.1466L28.1423 23.601C27.7622 23.3307 27.3447 23.1173 26.903 22.9676V22.2377C26.903 21.999 26.8091 21.7699 26.6417 21.5999C26.4742 21.4298 26.2465 21.3325 26.0079 21.3289H24.0249C23.7839 21.3289 23.5527 21.4246 23.3822 21.5951C23.2118 21.7655 23.1161 21.9967 23.1161 22.2377V22.9676C22.733 23.1017 22.3676 23.2821 22.0282 23.5046L21.4498 23.0226C21.3592 22.9513 21.2553 22.8987 21.1442 22.868C21.0331 22.8372 20.917 22.829 20.8026 22.8436C20.6825 22.8482 20.5648 22.8789 20.4578 22.9336C20.3508 22.9883 20.2569 23.0657 20.1829 23.1604L18.9435 24.7027C18.8683 24.7967 18.8125 24.9048 18.7794 25.0207C18.7463 25.1365 18.7365 25.2578 18.7507 25.3774C18.763 25.4953 18.7985 25.6095 18.8553 25.7135C18.912 25.8175 18.9888 25.9092 19.0813 25.9833L19.6596 26.4515C19.5182 26.8292 19.4212 27.222 19.3704 27.622L18.6544 27.7735C18.4234 27.8294 18.2228 27.9723 18.0945 28.1724C17.9663 28.3725 17.9202 28.6144 17.9658 28.8476L18.3927 30.7893C18.4171 30.9021 18.4638 31.009 18.53 31.1036C18.5962 31.1982 18.6806 31.2786 18.7783 31.3401C18.8785 31.4067 18.9913 31.452 19.1098 31.4733C19.2282 31.4946 19.3497 31.4915 19.4668 31.464L20.1829 31.3126C20.3892 31.6639 20.639 31.9878 20.9265 32.2765L20.6098 32.9237C20.5596 33.0291 20.5336 33.1444 20.5336 33.2611C20.5336 33.3778 20.5596 33.4931 20.6098 33.5985C20.6404 33.7163 20.6972 33.8258 20.7759 33.9188C20.8545 34.0117 20.9531 34.0858 21.0642 34.1356L22.8269 35.0169C22.9346 35.0673 23.0522 35.0934 23.1711 35.0934C23.2901 35.0934 23.4076 35.0673 23.5154 35.0169C23.6296 34.9819 23.7351 34.9234 23.8252 34.8451C23.9154 34.7669 23.9881 34.6706 24.0387 34.5624L24.3692 33.9014C24.603 33.9181 24.8377 33.9181 25.0715 33.9014C25.2411 33.9151 25.4114 33.9151 25.581 33.9014L25.884 34.5762C25.9336 34.6881 26.0056 34.7885 26.0956 34.8714C26.1856 34.9543 26.2917 35.0179 26.4073 35.0582C26.5077 35.0725 26.6097 35.0725 26.7102 35.0582C26.84 35.0557 26.9674 35.0227 27.082 34.9618L28.886 34.1356C29.0972 34.0329 29.2637 33.8566 29.3541 33.6398C29.4444 33.4192 29.4444 33.1719 29.3541 32.9513L28.9686 32.4555C29.255 32.1776 29.5091 31.868 29.7259 31.5329L30.442 31.7119C30.5567 31.7488 30.6781 31.7593 30.7973 31.7426C30.9165 31.7259 31.0305 31.6824 31.1306 31.6155C31.2333 31.5534 31.3227 31.4715 31.3936 31.3746C31.4645 31.2777 31.5155 31.1677 31.5437 31.0509L32.0394 29.1368C32.0707 29.014 32.077 28.8861 32.0581 28.7608C32.0392 28.6354 31.9954 28.5151 31.9293 28.407ZM30.5522 30.6103L29.244 30.266L29.1751 30.3899C29.0739 30.605 28.9492 30.8082 28.8033 30.9958C28.6692 31.2134 28.5071 31.4124 28.3214 31.588C28.1667 31.7516 27.996 31.8992 27.8118 32.0286L27.7017 32.1113L28.2525 33.4057L26.7102 34.0667L26.1456 32.8273H26.0079L25.3056 32.9237H25.0439H24.5482C24.3236 32.9207 24.1007 32.8836 23.8872 32.8136H23.7495L23.1023 34.0392L21.6013 33.268L22.2072 32.0562L22.097 31.9598C21.9183 31.8136 21.7524 31.6524 21.6013 31.4778C21.4276 31.3036 21.275 31.1095 21.1469 30.8995C21.0194 30.7074 20.9088 30.5047 20.8163 30.2935V30.1696L19.4393 30.4175L19.1226 28.7788L20.4996 28.4896V28.3243C20.4769 28.0954 20.4769 27.8648 20.4996 27.6358C20.5332 27.3869 20.5933 27.1422 20.6787 26.906C20.7395 26.6805 20.8274 26.4632 20.9403 26.2587V26.1348L19.8799 25.2259L20.9678 23.9315L22.0144 24.7853L22.1246 24.7027C22.2898 24.5787 22.4964 24.441 22.7029 24.3171C22.9168 24.177 23.1484 24.0658 23.3915 23.9866C23.6058 23.8997 23.8268 23.8306 24.0524 23.78H24.1902V22.403H25.8702V23.78H26.0079C26.2373 23.8389 26.4627 23.9125 26.6826 24.0004C26.964 24.0905 27.229 24.2254 27.4676 24.3997C27.673 24.5188 27.8666 24.6572 28.0459 24.8128L28.1423 24.8955L29.2715 24.083L30.2492 25.46L29.1751 26.2863V26.424C29.2859 26.6279 29.3693 26.8455 29.423 27.0712C29.4977 27.3082 29.544 27.5532 29.5607 27.8011C29.5738 27.9798 29.5738 28.1593 29.5607 28.3381C29.5695 28.3743 29.5695 28.4121 29.5607 28.4483V28.6135L30.9378 28.9991L30.5522 30.6103Z" fill="#0066B3"/>
<path d="M25.0154 25.5703C24.4709 25.5703 23.9386 25.7318 23.4858 26.0343C23.0331 26.3368 22.6802 26.7668 22.4718 27.2699C22.2634 27.773 22.2089 28.3265 22.3152 28.8606C22.4214 29.3946 22.6836 29.8852 23.0686 30.2702C23.4537 30.6553 23.9442 30.9175 24.4783 31.0237C25.0123 31.13 25.5659 31.0754 26.069 30.8671C26.5721 30.6587 27.0021 30.3058 27.3046 29.853C27.6071 29.4003 27.7686 28.868 27.7686 28.3235C27.7686 27.5933 27.4785 26.893 26.9622 26.3767C26.4459 25.8604 25.7456 25.5703 25.0154 25.5703ZM25.0154 30.2231C24.6391 30.2259 24.2705 30.1168 23.9563 29.9097C23.6421 29.7026 23.3964 29.4069 23.2506 29.06C23.1047 28.7132 23.0651 28.3308 23.1368 27.9614C23.2086 27.592 23.3884 27.2522 23.6535 26.9851C23.9186 26.7181 24.2571 26.5358 24.626 26.4614C24.9948 26.3869 25.3775 26.4237 25.7254 26.5671C26.0734 26.7105 26.3709 26.954 26.5802 27.2666C26.7896 27.5793 26.9013 27.9472 26.9013 28.3235C26.9013 28.8249 26.7031 29.306 26.3498 29.6619C25.9965 30.0178 25.5169 30.2195 25.0154 30.2231Z" fill="#0066B3"/>
</g>
<path d="M28.5235 8.0069H27.5703C27.2658 8.01751 26.9676 8.09595 26.6973 8.2365C26.427 8.37706 26.1915 8.57619 26.0079 8.81935L25.0705 10.1318L23.9768 8.75686C23.7917 8.52004 23.5544 8.32917 23.2834 8.19909C23.0124 8.06901 22.715 8.00324 22.4144 8.0069H21.477C21.1212 7.99215 20.766 8.04954 20.4329 8.17562C20.0998 8.30169 19.7957 8.49384 19.5388 8.74052C19.2819 8.98719 19.0776 9.28329 18.9381 9.61098C18.7986 9.93868 18.7269 10.2912 18.7272 10.6474V12.9128C18.7272 13.1324 18.7704 13.3498 18.8544 13.5526C18.9384 13.7554 19.0616 13.9397 19.2169 14.095C19.3721 14.2502 19.5564 14.3733 19.7592 14.4573C19.962 14.5414 20.1794 14.5846 20.399 14.5846H29.4296C29.6594 14.6018 29.8903 14.5714 30.1078 14.4951C30.3253 14.4188 30.5247 14.2984 30.6934 14.1414C30.8621 13.9844 30.9966 13.7943 31.0883 13.5828C31.18 13.3714 31.227 13.1433 31.2264 12.9128V10.6474C31.2223 10.2965 31.1491 9.94988 31.011 9.62729C30.873 9.30471 30.6728 9.01247 30.4218 8.76728C30.1708 8.52209 29.8739 8.32874 29.5482 8.19827C29.2225 8.06781 28.8743 8.00278 28.5235 8.0069ZM29.6015 12.9128C29.5982 12.9407 29.5856 12.9666 29.5658 12.9865C29.5459 13.0063 29.52 13.0189 29.4921 13.0222H20.4614C20.4324 13.0222 20.4046 13.0107 20.3841 12.9902C20.3636 12.9697 20.352 12.9418 20.352 12.9128V10.6474C20.3561 10.3627 20.471 10.0908 20.6723 9.88953C20.8736 9.68822 21.1454 9.57334 21.4301 9.5693H22.3676C22.432 9.56989 22.4953 9.58578 22.5523 9.61567C22.6094 9.64555 22.6585 9.68856 22.6956 9.74117L25.0549 12.6941L27.1954 9.75679C27.2381 9.69765 27.2946 9.64971 27.3599 9.61707C27.4251 9.58443 27.4973 9.56804 27.5703 9.5693H28.5235C28.8081 9.57334 29.08 9.68822 29.2813 9.88953C29.4826 10.0908 29.5975 10.3627 29.6015 10.6474V12.9128Z" fill="#012842"/>
<path d="M24.9765 0.960801C24.1478 0.960801 23.3531 1.29001 22.7671 1.87599C22.1811 2.46198 21.8519 3.25675 21.8519 4.08546C21.8477 4.43294 21.9114 4.77789 22.0393 5.10098C22.1303 5.41056 22.2845 5.69785 22.4924 5.94464C22.7287 6.30045 23.0512 6.59067 23.4298 6.78829C23.8989 7.07869 24.4405 7.23035 24.9922 7.22574C25.4974 7.24177 25.9965 7.11157 26.4295 6.85079C26.8192 6.66501 27.1613 6.39245 27.4294 6.054C27.639 5.81496 27.8031 5.53963 27.9137 5.24159C28.0722 4.87697 28.1521 4.48303 28.1481 4.08546C28.1482 3.67115 28.0658 3.26097 27.9058 2.87878C27.7459 2.49659 27.5115 2.15003 27.2164 1.85926C26.9212 1.56848 26.5712 1.33931 26.1867 1.18506C25.8022 1.03082 25.3908 0.954586 24.9765 0.960801ZM24.9765 2.52313C25.3909 2.52313 25.7883 2.68773 26.0812 2.98073C26.3742 3.27372 26.5389 3.67111 26.5389 4.08546C26.5374 4.33003 26.4786 4.57084 26.367 4.78851C26.2425 5.03201 26.06 5.24123 25.8358 5.39782C25.5712 5.58621 25.2544 5.68745 24.9296 5.68745C24.6048 5.68745 24.2881 5.58621 24.0235 5.39782C23.8087 5.23306 23.6372 5.0186 23.5236 4.77289C23.4138 4.57204 23.3598 4.34546 23.3673 4.11671C23.363 3.90492 23.4018 3.69447 23.4813 3.49813C23.5609 3.3018 23.6794 3.12369 23.83 2.97464C23.9805 2.82558 24.1598 2.70869 24.3569 2.63108C24.554 2.55346 24.7648 2.51673 24.9765 2.52313Z" fill="#012842"/>
<path d="M10.1361 36.9262H9.18305C8.87858 36.9368 8.58032 37.0152 8.31002 37.1558C8.03972 37.2963 7.8042 37.4955 7.62065 37.7386L6.68316 39.051L5.58955 37.6761C5.40441 37.4393 5.16709 37.2484 4.89609 37.1183C4.62509 36.9883 4.32773 36.9225 4.02716 36.9262H3.08966C2.74291 36.9262 2.39957 36.9945 2.07921 37.1272C1.75886 37.2599 1.46777 37.4543 1.22258 37.6995C0.977394 37.9447 0.78292 38.2358 0.650225 38.5562C0.51753 38.8765 0.449203 39.2199 0.449203 39.5666V41.8321C0.449203 42.2755 0.625366 42.7007 0.938883 43.0142C1.2524 43.3277 1.6776 43.5039 2.12098 43.5039H11.1517C11.3712 43.5039 11.5885 43.4606 11.7914 43.3766C11.9942 43.2926 12.1785 43.1695 12.3338 43.0142C12.489 42.859 12.6121 42.6747 12.6962 42.4719C12.7802 42.269 12.8234 42.0516 12.8234 41.8321V39.5666C12.8151 38.8608 12.5279 38.1868 12.0243 37.6921C11.5208 37.1974 10.842 36.922 10.1361 36.9262ZM11.2142 41.8321C11.2108 41.86 11.1982 41.8859 11.1784 41.9057C11.1586 41.9256 11.1326 41.9382 11.1048 41.9415H2.07416C2.04515 41.9415 2.01733 41.9299 1.99682 41.9094C1.97631 41.8889 1.96478 41.8611 1.96478 41.8321V39.5666C1.96882 39.282 2.0837 39.0101 2.285 38.8088C2.48631 38.6075 2.75818 38.4926 3.04284 38.4886H3.98024C4.04464 38.4892 4.108 38.505 4.16505 38.5349C4.2221 38.5648 4.27123 38.6078 4.30838 38.6604L6.66761 41.6134L8.80809 38.6761C8.85087 38.6169 8.9073 38.569 8.97259 38.5363C9.03788 38.5037 9.11007 38.4873 9.18305 38.4886H10.1361C10.4208 38.4926 10.6926 38.6075 10.8939 38.8088C11.0952 39.0101 11.2101 39.282 11.2142 39.5666V41.8321Z" fill="#012842"/>
<path d="M6.60491 29.8793C5.7762 29.8793 4.98147 30.2085 4.39548 30.7945C3.8095 31.3804 3.48025 32.1752 3.48025 33.0039C3.4761 33.3514 3.53978 33.6963 3.66772 34.0194C3.75864 34.329 3.91299 34.6163 4.12086 34.8631C4.35713 35.2189 4.67957 35.5091 5.05822 35.7067C5.52725 35.9971 6.06891 36.1488 6.62055 36.1442C7.12577 36.1602 7.62485 36.03 8.05786 35.7692C8.44762 35.5835 8.78968 35.3109 9.05778 34.9725C9.26736 34.7334 9.4315 34.4581 9.5421 34.16C9.70062 33.7954 9.78051 33.4015 9.77648 33.0039C9.77653 32.5896 9.69413 32.1794 9.53418 31.7972C9.37423 31.415 9.13988 31.0685 8.84475 30.7777C8.54962 30.4869 8.19961 30.2578 7.81508 30.1035C7.43056 29.9493 7.01917 29.873 6.60491 29.8793ZM6.60491 31.4416C7.01926 31.4416 7.41663 31.6062 7.70962 31.8992C8.00261 32.1922 8.16724 32.5896 8.16724 33.0039C8.16577 33.2485 8.10693 33.4893 7.9954 33.707C7.87085 33.9505 7.68841 34.1597 7.46417 34.3163C7.19957 34.5047 6.8829 34.6059 6.55809 34.6059C6.23327 34.6059 5.91651 34.5047 5.65191 34.3163C5.43712 34.1515 5.26554 33.9371 5.15195 33.6913C5.04219 33.4905 4.98828 33.2639 4.99576 33.0352C4.99142 32.8234 5.03017 32.6129 5.10971 32.4166C5.18925 32.2203 5.30791 32.0421 5.45843 31.8931C5.60895 31.744 5.78818 31.6271 5.98528 31.5495C6.18238 31.4719 6.39317 31.4352 6.60491 31.4416Z" fill="#012842"/>
<path d="M46.1272 36.9262H45.1741C44.8696 36.9368 44.5714 37.0152 44.3011 37.1558C44.0308 37.2963 43.7952 37.4955 43.6117 37.7386L42.6743 39.051L41.5806 37.6761C41.3955 37.4393 41.1581 37.2484 40.8871 37.1183C40.6161 36.9883 40.3188 36.9225 40.0182 36.9262H39.0652C38.3649 36.9262 37.6933 37.2044 37.1981 37.6995C36.7029 38.1947 36.4247 38.8663 36.4247 39.5666V41.8321C36.4247 42.2755 36.6009 42.7007 36.9144 43.0142C37.2279 43.3277 37.6531 43.5039 38.0965 43.5039H47.1271C47.3466 43.5039 47.5641 43.4606 47.7669 43.3766C47.9697 43.2926 48.1541 43.1695 48.3093 43.0142C48.4645 42.859 48.5877 42.6747 48.6717 42.4719C48.7557 42.269 48.7989 42.0516 48.7989 41.8321V39.5666C48.7907 38.8635 48.5055 38.1919 48.0054 37.6976C47.5052 37.2033 46.8304 36.9261 46.1272 36.9262ZM47.2053 41.8321C47.202 41.86 47.1894 41.8859 47.1695 41.9057C47.1497 41.9256 47.1238 41.9382 47.0959 41.9415H38.0652C38.0362 41.9415 38.0084 41.9299 37.9879 41.9094C37.9674 41.8889 37.9558 41.8611 37.9558 41.8321V39.5666C37.9599 39.282 38.0748 39.0101 38.2761 38.8088C38.4774 38.6075 38.7492 38.4926 39.0339 38.4886H39.9714C40.0358 38.4892 40.0991 38.505 40.1561 38.5349C40.2132 38.5648 40.2623 38.6078 40.2994 38.6604L42.6587 41.6134L44.7991 38.6761C44.8419 38.6169 44.8984 38.569 44.9636 38.5363C45.0289 38.5037 45.1011 38.4873 45.1741 38.4886H46.1272C46.4119 38.4926 46.6838 38.6075 46.8851 38.8088C47.0864 39.0101 47.2013 39.282 47.2053 39.5666V41.8321Z" fill="#012842"/>
<path d="M42.5646 29.8793C41.7359 29.8793 40.9412 30.2085 40.3552 30.7945C39.7692 31.3804 39.44 32.1752 39.44 33.0039C39.4358 33.3514 39.4995 33.6963 39.6275 34.0194C39.7184 34.329 39.8727 34.6163 40.0806 34.8631C40.3169 35.2189 40.6393 35.5091 41.0179 35.7067C41.487 35.9971 42.0286 36.1488 42.5803 36.1442C43.0855 36.1602 43.5846 36.03 44.0176 35.7692C44.4074 35.5835 44.7494 35.3109 45.0175 34.9725C45.2271 34.7334 45.3912 34.4581 45.5018 34.16C45.6604 33.7954 45.7402 33.4015 45.7362 33.0039C45.7363 32.5896 45.6539 32.1794 45.4939 31.7972C45.334 31.415 45.0996 31.0685 44.8045 30.7777C44.5093 30.4869 44.1593 30.2578 43.7748 30.1035C43.3903 29.9493 42.9789 29.873 42.5646 29.8793ZM42.5646 31.4416C42.979 31.4416 43.3764 31.6062 43.6694 31.8992C43.9623 32.1922 44.127 32.5896 44.127 33.0039C44.1255 33.2485 44.0667 33.4893 43.9551 33.707C43.8306 33.9505 43.6481 34.1597 43.4239 34.3163C43.1593 34.5047 42.8426 34.6059 42.5178 34.6059C42.193 34.6059 41.8762 34.5047 41.6116 34.3163C41.3969 34.1515 41.2253 33.9371 41.1117 33.6913C41.0019 33.4905 40.948 33.2639 40.9555 33.0352C40.9512 32.8234 40.9899 32.6129 41.0694 32.4166C41.149 32.2203 41.2676 32.0421 41.4182 31.8931C41.5687 31.744 41.7479 31.6271 41.945 31.5495C42.1421 31.4719 42.3529 31.4352 42.5646 31.4416Z" fill="#012842"/>
<defs>
<clipPath id="clip0_3005_3624">
<rect width="14.1201" height="13.7646" fill="white" transform="translate(17.9486 21.3289)"/>
</clipPath>
</defs>
</svg>
