<svg width="30" height="30" viewBox="0 0 30 30" fill="none" xmlns="http://www.w3.org/2000/svg">
<g clip-path="url(#clip0_2853_50397)">
<path d="M0 0H30V30H0V0Z" fill="#017ACB"/>
<path d="M14.4047 11.1093H15.8438V13.5937H11.9531V24.6468L11.85 24.675C11.7094 24.7125 9.85781 24.7125 9.45938 24.6703L9.14062 24.6421V13.5937H5.25V11.1093L6.48281 11.0953C7.15781 11.0859 8.89219 11.0859 10.3359 11.0953C11.7797 11.1046 13.6078 11.1093 14.4047 11.1093ZM25.3875 23.475C24.8156 24.0796 24.2016 24.4171 23.1797 24.6937C22.7344 24.8156 22.6594 24.8203 21.6562 24.8156C20.6531 24.8109 20.5734 24.8109 20.0859 24.6843C18.825 24.3609 17.8078 23.7281 17.1141 22.8328C16.9172 22.5796 16.5938 22.0546 16.5938 21.989C16.5938 21.9703 16.6406 21.9281 16.7016 21.9C16.7625 21.8718 16.8891 21.7921 16.9922 21.7312C17.0953 21.6703 17.2828 21.5578 17.4094 21.4921C17.5359 21.4265 17.9016 21.2109 18.2203 21.0187C18.5391 20.8265 18.8297 20.6718 18.8625 20.6718C18.8953 20.6718 18.9562 20.7375 19.0031 20.8171C19.2844 21.2906 19.9406 21.8953 20.4047 22.1015C20.6906 22.2234 21.3234 22.3593 21.6281 22.3593C21.9094 22.3593 22.425 22.2375 22.7016 22.1109C22.9969 21.975 23.1469 21.839 23.325 21.5671C23.4469 21.375 23.4609 21.3234 23.4562 20.9578C23.4562 20.6203 23.4375 20.5265 23.3438 20.3718C23.0812 19.9406 22.725 19.7156 21.2812 19.0781C19.7906 18.4171 19.1203 18.0234 18.5766 17.4937C18.1734 17.1 18.0938 16.9921 17.8406 16.5C17.5125 15.8671 17.4703 15.6609 17.4656 14.7187C17.4609 14.0578 17.475 13.8421 17.5453 13.6171C17.6437 13.2796 17.9625 12.6281 18.1078 12.464C18.4078 12.1125 18.5156 12.0046 18.7266 11.8312C19.3641 11.3062 20.3578 10.9593 21.3094 10.9265C21.4172 10.9265 21.7734 10.9453 22.1063 10.9687C23.0625 11.0484 23.7141 11.2828 24.3422 11.7843C24.8156 12.1593 25.5328 13.0406 25.4625 13.1578C25.4156 13.2281 23.5453 14.475 23.4234 14.5125C23.3484 14.5359 23.2969 14.5078 23.1937 14.3859C22.5562 13.6218 22.2984 13.4578 21.6797 13.4203C21.2391 13.3921 21.0047 13.4437 20.7094 13.6406C20.4 13.8468 20.25 14.1609 20.25 14.5968C20.2547 15.2343 20.4984 15.5343 21.3984 15.9796C21.9797 16.2656 22.4766 16.5 22.5141 16.5C22.5703 16.5 23.775 17.1 24.0891 17.2875C25.5516 18.1453 26.1469 19.0265 26.3016 20.5453C26.4141 21.689 26.0906 22.7343 25.3875 23.475Z" fill="white"/>
</g>
<defs>
<clipPath id="clip0_2853_50397">
<rect width="30" height="30" fill="white"/>
</clipPath>
</defs>
</svg>
