<svg width="100" height="101" viewBox="0 0 100 101" fill="none" xmlns="http://www.w3.org/2000/svg">
<path d="M50.8774 79.8994V86.1098L51.7563 85.2309H48.6407L49.5196 86.1098V79.8994L49.2622 80.5208L50.8738 78.4681L49.4934 78.2902L50.9974 80.3429C51.28 80.7286 51.7543 80.9193 52.1999 80.6582C52.5811 80.4349 52.799 79.843 52.5152 79.4558L51.0112 77.4031C50.7137 76.997 50.0126 76.7388 49.6308 77.2251L48.1126 79.1588C47.9056 79.4225 47.7617 79.6788 47.7617 80.0215V86.1098C47.7617 86.5889 48.1615 86.9887 48.6406 86.9887H51.7563C52.2354 86.9887 52.6352 86.5889 52.6352 86.1098V79.8994C52.6353 78.7658 50.8774 78.7658 50.8774 79.8994Z" fill="#99A9B3"/>
<path d="M50.8773 86.1089V97.6571L51.7562 96.7782H48.6406L49.5195 97.6571V86.1089L48.6406 86.9878H51.7562C52.8897 86.9878 52.8897 85.23 51.7562 85.23H48.6406C48.1615 85.23 47.7617 85.6298 47.7617 86.1089V97.6571C47.7617 98.1362 48.1615 98.536 48.6406 98.536H51.7562C52.2354 98.536 52.6352 98.1362 52.6352 97.6571V86.1089C52.6352 84.9754 50.8773 84.9754 50.8773 86.1089Z" fill="#99A9B3"/>
<path d="M48.9131 84.1706C47.8306 83.5204 46.748 82.8702 45.6655 82.2198C45.4041 82.0629 45.039 82.055 44.7783 82.2198L41.8234 84.0896C41.4146 84.3481 41.0969 84.6287 41.0969 85.1495V97.6579C41.0969 98.137 41.4967 98.5368 41.9758 98.5368H48.6408C49.1199 98.5368 49.5197 98.137 49.5197 97.6579V86.686C49.5197 85.9236 49.76 84.6788 48.9988 84.222L48.9131 84.1706C47.9386 83.5857 47.0554 85.106 48.0259 85.6885L48.1972 85.7913C48.0521 85.5383 47.907 85.2854 47.7618 85.0324V97.658L48.6407 96.7791H41.9757L42.8546 97.658V85.0324C42.7095 85.2854 42.5644 85.5384 42.4192 85.7913C43.5026 85.1089 44.5834 84.4224 45.6654 83.7378H44.7782C45.8607 84.388 46.9433 85.0382 48.0258 85.6886C49.0001 86.2736 49.8833 84.7535 48.9131 84.1706ZM41.0454 50.9009V65.8363L41.9243 64.9574H25.5L26.3789 65.8363V50.9009L25.5 51.7798H41.9243C43.0578 51.7798 43.0578 50.022 41.9243 50.022H25.5C25.0209 50.022 24.6211 50.4218 24.6211 50.9009V65.8363C24.6211 66.3154 25.0209 66.7152 25.5 66.7152H41.9243C42.4034 66.7152 42.8032 66.3154 42.8032 65.8363V50.9009C42.8032 49.7674 41.0454 49.7674 41.0454 50.9009Z" fill="#99A9B3"/>
<path d="M41.0454 65.8354V81.3357L41.9243 80.4568H25.5L26.3789 81.3357V65.8354L25.5 66.7144H41.9243C43.0578 66.7144 43.0578 64.9565 41.9243 64.9565H25.5C25.0209 64.9565 24.6211 65.3563 24.6211 65.8354V81.3357C24.6211 81.8148 25.0209 82.2147 25.5 82.2147H41.9243C42.4034 82.2147 42.8032 81.8148 42.8032 81.3357V65.8354C42.8032 64.7019 41.0454 64.7019 41.0454 65.8354Z" fill="#99A9B3"/>
<path d="M41.0454 81.3358V97.7087L41.9243 96.8298H25.5L26.3789 97.7087V81.3358L25.5 82.2147H41.9243C43.0578 82.2147 43.0578 80.4569 41.9243 80.4569H25.5C25.0209 80.4569 24.6211 80.8567 24.6211 81.3358V97.7087C24.6211 98.1878 25.0209 98.5876 25.5 98.5876H41.9243C42.4034 98.5876 42.8032 98.1878 42.8032 97.7087V81.3358C42.8032 80.2023 41.0454 80.2023 41.0454 81.3358ZM30.3619 41.7446C30.3909 39.9194 31.8398 38.4703 33.665 38.4413C35.4907 38.4123 36.9399 39.9627 36.9683 41.7446C36.9973 43.57 35.4466 45.0195 33.665 45.0477C31.8399 45.0767 30.3901 43.5258 30.3619 41.7446C30.3439 40.6121 28.586 40.6104 28.6041 41.7446C28.6418 44.1183 30.2929 46.2093 32.6368 46.6987C35.0238 47.1971 37.4294 45.8679 38.3535 43.6352C39.2831 41.3892 38.3902 38.8628 36.4339 37.5088C34.4591 36.1419 31.6986 36.5545 30.0424 38.2106C29.1107 39.1421 28.6247 40.4399 28.604 41.7446C28.586 42.8787 30.3439 42.877 30.3619 41.7446Z" fill="#99A9B3"/>
<path d="M22.0966 32.603V50.8752C22.0966 51.3543 22.4964 51.7541 22.9755 51.7541H44.3272C44.8063 51.7541 45.2061 51.3543 45.2061 50.8752V32.603C45.2061 32.1239 44.8063 31.7241 44.3272 31.7241H22.9755C21.842 31.7241 21.842 33.4819 22.9755 33.4819H44.3272L43.4483 32.603V50.8752L44.3272 49.9963H22.9755L23.8544 50.8752V32.603C23.8544 31.4695 22.0966 31.4695 22.0966 32.603Z" fill="#99A9B3"/>
<path d="M41.1029 31.7493H26.3212L27.2001 32.6282V28.3169L26.3212 29.1958H41.1029L40.224 28.3169V32.6282C40.224 33.7617 41.9818 33.7617 41.9818 32.6282V28.3169C41.9818 27.8378 41.582 27.438 41.1029 27.438H26.3212C25.8421 27.438 25.4423 27.8378 25.4423 28.3169V32.6282C25.4423 33.1073 25.8421 33.5071 26.3212 33.5071H41.1029C42.2364 33.5071 42.2364 31.7493 41.1029 31.7493Z" fill="#99A9B3"/>
<path d="M41.0543 27.438H26.2725L27.0314 28.7604L31.1375 22.6014C30.8846 22.7465 30.6316 22.8916 30.3787 23.0367H36.9483L36.1894 22.6014L40.2954 28.7604C40.9208 29.6985 42.444 28.8194 41.8132 27.8732L37.8778 21.97C37.6258 21.5922 37.3695 21.2788 36.8579 21.2788H30.3864C29.9602 21.2788 29.7228 21.5597 29.5125 21.8751L28.2056 23.8355L25.5138 27.8732C25.1372 28.4381 25.6364 29.1957 26.2727 29.1957H41.0545C42.1879 29.1958 42.1879 27.438 41.0543 27.438Z" fill="#99A9B3"/>
<path d="M36.9974 16.3511H30.4277C29.9486 16.3511 29.5488 16.7509 29.5488 17.23V22.1572C29.5488 22.6363 29.9486 23.0361 30.4277 23.0361H36.9974C37.4765 23.0361 37.8763 22.6363 37.8763 22.1572V17.23C37.8763 16.0965 36.1185 16.0965 36.1185 17.23V22.1572L36.9974 21.2783H30.4277L31.3066 22.1572V17.23L30.4277 18.1089H36.9974C38.131 18.1089 38.131 16.3511 36.9974 16.3511Z" fill="#99A9B3"/>
<path d="M32.7888 6.57323L29.5309 16.997C29.3593 17.5459 29.8218 18.1096 30.3784 18.1096H36.9481C37.5026 18.1096 37.9698 17.5456 37.7956 16.997L34.4839 6.57323C34.142 5.49706 32.4447 5.95712 32.7889 7.04052L36.1006 17.4642L36.9482 16.3517H30.3785L31.2261 17.4642L34.484 7.04052C34.8229 5.95556 33.1257 5.49511 32.7888 6.57323ZM25.471 35.4264V48.0841C25.471 48.5632 25.8708 48.963 26.3499 48.963H40.9486C41.4277 48.963 41.8275 48.5632 41.8275 48.0841V35.4264C41.8275 34.9473 41.4277 34.5474 40.9486 34.5474H26.3499C25.2164 34.5474 25.2164 36.3053 26.3499 36.3053H40.9486L40.0697 35.4264V48.0841L40.9486 47.2052H26.3499L27.2288 48.0841V35.4264C27.2288 34.2928 25.471 34.2928 25.471 35.4264ZM24.5786 66.7148H42.7479C43.8814 66.7148 43.8814 64.957 42.7479 64.957H24.5786C23.4451 64.957 23.4451 66.7148 24.5786 66.7148ZM24.5786 82.215H42.7479C43.8814 82.215 43.8814 80.4572 42.7479 80.4572H24.5786C23.4451 80.4572 23.4451 82.215 24.5786 82.215ZM35.4552 55.6109V60.8173C35.4552 61.9508 37.213 61.9508 37.213 60.8173V55.6109C37.213 54.4773 35.4552 54.4773 35.4552 55.6109ZM30.1522 55.6109V60.8173C30.1522 61.9508 31.91 61.9508 31.91 60.8173V55.6109C31.91 54.4773 30.1522 54.4773 30.1522 55.6109ZM35.4846 71.0365V76.2429C35.4846 77.3764 37.2424 77.3764 37.2424 76.2429V71.0365C37.2424 69.9029 35.4846 69.9029 35.4846 71.0365ZM30.1816 71.0365V76.2429C30.1816 77.3764 31.9394 77.3764 31.9394 76.2429V71.0365C31.9394 69.9029 30.1816 69.9029 30.1816 71.0365ZM35.4552 86.6731V93.0439C35.4552 94.1774 37.213 94.1774 37.213 93.0439V86.6731C37.213 85.5395 35.4552 85.5395 35.4552 86.6731ZM30.1522 86.6731V93.0439C30.1522 94.1774 31.91 94.1774 31.91 93.0439V86.6731C31.91 85.5395 30.1522 85.5395 30.1522 86.6731Z" fill="#99A9B3"/>
<path d="M33.5538 40.6715L31.5459 42.3601C31.1788 42.6688 31.2291 43.2862 31.5459 43.603C31.9062 43.9635 32.4225 43.9111 32.7888 43.603L34.7967 41.9145C35.1638 41.6058 35.1135 40.9883 34.7967 40.6715C34.4363 40.3111 33.9201 40.3634 33.5538 40.6715Z" fill="#99A9B3"/>
<path d="M32.7551 41.9144L33.9531 43.1124C34.2917 43.4511 34.8574 43.4511 35.1961 43.1124C35.5348 42.7738 35.5348 42.2081 35.1961 41.8694L33.9981 40.6714C33.6595 40.3327 33.0938 40.3327 32.7551 40.6714C32.4164 41.0101 32.4164 41.5758 32.7551 41.9144ZM32.7574 3.4708V7.35957C32.7574 8.49307 34.5152 8.49307 34.5152 7.35957V3.4708C34.5152 2.33721 32.7574 2.33721 32.7574 3.4708ZM43.4479 30.0107V32.9289C43.4479 34.0624 45.2057 34.0624 45.2057 32.9289V30.0107C45.2057 28.8772 43.4479 28.8772 43.4479 30.0107ZM22.0965 29.7027V32.621C22.0965 33.7545 23.8543 33.7545 23.8543 32.621V29.7027C23.8543 28.5691 22.0965 28.5691 22.0965 29.7027ZM40.224 25.3914V28.3096C40.224 29.4431 41.9818 29.4431 41.9818 28.3096V25.3914C41.9818 24.2579 40.224 24.2579 40.224 25.3914ZM25.4423 25.3914V28.3096C25.4423 29.4431 27.2001 29.4431 27.2001 28.3096V25.3914C27.2001 24.2579 25.4423 24.2579 25.4423 25.3914ZM60.8023 79.8989V86.1094L61.6812 85.2305H58.5655L59.4444 86.1094V79.8989L59.187 80.5204L60.7984 78.4677L59.418 78.2897L60.9222 80.3425C61.2048 80.7281 61.6791 80.9188 62.1246 80.6578C62.5059 80.4345 62.7238 79.8426 62.44 79.4554L60.9358 77.4026C60.6382 76.9966 59.9371 76.7383 59.5553 77.2247L58.0373 79.1584C57.8304 79.4221 57.6864 79.6784 57.6864 80.0211V86.1094C57.6864 86.5885 58.0862 86.9883 58.5653 86.9883H61.681C62.1601 86.9883 62.5599 86.5885 62.5599 86.1094V79.8989C62.5601 78.7653 60.8023 78.7653 60.8023 79.8989Z" fill="#99A9B3"/>
<path d="M60.8021 86.1089V97.6571L61.6811 96.7782H58.5654L59.4443 97.6571V86.1089L58.5654 86.9878H61.6811C62.8146 86.9878 62.8146 85.23 61.6811 85.23H58.5654C58.0863 85.23 57.6865 85.6298 57.6865 86.1089V97.6571C57.6865 98.1362 58.0863 98.536 58.5654 98.536H61.6811C62.1602 98.536 62.56 98.1362 62.56 97.6571V86.1089C62.56 84.9754 60.8021 84.9754 60.8021 86.1089Z" fill="#99A9B3"/>
<path d="M57.6867 85.0323V86.1096L58.5656 85.2307H51.9005L52.7794 86.1096V85.0323L52.3442 85.7912C53.4272 85.1084 54.5081 84.4222 55.5901 83.7377H54.7029C55.8426 84.4223 56.9819 85.1072 58.1221 85.7912C59.0966 86.3758 59.9798 84.8556 59.0092 84.2733C57.8692 83.5894 56.7298 82.9043 55.5901 82.2198C55.3287 82.0629 54.9636 82.055 54.7029 82.2198L52.2791 83.7535C52.0051 83.9268 51.7313 84.1005 51.4569 84.2733C50.8612 84.6489 51.0216 85.5043 51.0216 86.1096C51.0216 86.5887 51.4214 86.9886 51.9005 86.9886H58.5656C59.0447 86.9886 59.4445 86.5887 59.4445 86.1096V85.0323C59.4445 83.8988 57.6867 83.8988 57.6867 85.0323Z" fill="#99A9B3"/>
<path d="M57.6866 86.1078V97.656L58.5655 96.7771H51.9004L52.7793 97.656V86.1078L51.9004 86.9867H58.5655C59.699 86.9867 59.699 85.2289 58.5655 85.2289H51.9004C51.4213 85.2289 51.0215 85.6287 51.0215 86.1078V97.656C51.0215 98.1351 51.4213 98.5349 51.9004 98.5349H58.5655C59.0446 98.5349 59.4444 98.1351 59.4444 97.656V86.1078C59.4444 84.9743 57.6866 84.9743 57.6866 86.1078ZM70.583 79.8974V86.1079L71.4619 85.229H68.3462L69.2251 86.1079V79.8974L68.9677 80.5189L70.5792 78.4662L69.1987 78.2883L70.7029 80.341C70.9855 80.7266 71.4599 80.9174 71.9054 80.6563C72.2866 80.433 72.5046 79.8411 72.2207 79.4539L70.7165 77.4012C70.4189 76.9951 69.7179 76.7368 69.336 77.2232L67.818 79.1569C67.6109 79.4206 67.4671 79.6769 67.4671 80.0196V86.1079C67.4671 86.587 67.8669 86.9868 68.346 86.9868H71.4617C71.9408 86.9868 72.3406 86.587 72.3406 86.1079V79.8974C72.3408 78.7638 70.583 78.7638 70.583 79.8974Z" fill="#99A9B3"/>
<path d="M70.5825 86.1089V97.6571L71.4614 96.7782H68.3457L69.2246 97.6571V86.1089L68.3457 86.9878H71.4614C72.5949 86.9878 72.5949 85.23 71.4614 85.23H68.3457C67.8666 85.23 67.4668 85.6298 67.4668 86.1089V97.6571C67.4668 98.1362 67.8666 98.536 68.3457 98.536H71.4614C71.9405 98.536 72.3403 98.1362 72.3403 97.6571V86.1089C72.3403 84.9754 70.5825 84.9754 70.5825 86.1089Z" fill="#99A9B3"/>
<path d="M67.4668 85.0323V86.1097L68.3457 85.2308H61.6808L62.5597 86.1097V85.0323C62.4147 85.2854 62.2694 85.5383 62.1243 85.7912C63.2077 85.1079 64.2895 84.4222 65.372 83.7377H64.4847C65.6238 84.4223 66.7626 85.1072 67.9021 85.7912C68.8766 86.3761 69.7598 84.8559 68.7894 84.2734C67.6498 83.5895 66.511 82.9043 65.372 82.2198C65.1106 82.0628 64.7454 82.055 64.4847 82.2198C63.6764 82.7311 62.868 83.2424 62.0596 83.7535C61.7855 83.9269 61.5115 84.1004 61.2372 84.2734C60.6415 84.6491 60.8019 85.5042 60.8019 86.1097C60.8019 86.5888 61.2017 86.9886 61.6808 86.9886H68.3457C68.8248 86.9886 69.2246 86.5888 69.2246 86.1097V85.0323C69.2246 83.8988 67.4668 83.8988 67.4668 85.0323Z" fill="#99A9B3"/>
<path d="M67.4669 86.1089V97.6571L68.3458 96.7782H61.6809L62.5598 97.6571V86.1089L61.6809 86.9878H68.3458C69.4793 86.9878 69.4793 85.23 68.3458 85.23H61.6809C61.2018 85.23 60.802 85.6298 60.802 86.1089V97.6571C60.802 98.1362 61.2018 98.536 61.6809 98.536H68.3458C68.8249 98.536 69.2247 98.1362 69.2247 97.6571V86.1089C69.2247 84.9754 67.4669 84.9754 67.4669 86.1089ZM48.6403 85.23H42.2622C41.1287 85.23 41.1287 86.9878 42.2622 86.9878H48.6403C49.7738 86.9878 49.7738 85.23 48.6403 85.23Z" fill="#99A9B3"/>
<path d="M21.1373 98.5874H76.6622C77.7957 98.5874 77.7957 96.8296 76.6622 96.8296H21.1373C20.0037 96.8296 20.0037 98.5874 21.1373 98.5874Z" fill="#99A9B3"/>
</svg>
