<svg width="100" height="101" viewBox="0 0 100 101" fill="none" xmlns="http://www.w3.org/2000/svg">
<path d="M63.1052 84.1399L61.6947 74.5056L62.3738 72.6698C63.0231 70.9161 62.1873 69.5504 61.4634 68.8788V63.4086L69.7022 61.6623C70.0604 61.5877 70.3067 61.2668 70.2918 60.9011C70.2768 60.5355 70.0007 60.237 69.635 60.1922L61.4634 59.2146V58.9459L70.9709 53.0131C71.2768 52.819 71.4037 52.431 71.2694 52.0952C71.135 51.7594 70.7768 51.5653 70.4186 51.6474L60.053 53.931C60.0455 53.931 60.038 53.9385 60.0306 53.9385C59.7992 53.6549 59.5529 53.3937 59.2918 53.1474L65.2544 44.9459C65.4709 44.6474 65.441 44.2444 65.1798 43.9832C64.9186 43.722 64.5156 43.6847 64.2171 43.9011L55.344 50.2295C55.2097 50.3265 55.1276 50.4683 55.0753 50.6176C54.6574 50.4608 54.2395 50.3265 53.8141 50.2146L52.344 39.9459C52.2918 39.5877 51.9933 39.319 51.6276 39.3041C51.2395 39.2892 50.9485 39.5429 50.8738 39.9011L48.7321 50.2146C48.15 50.3638 47.6127 50.5504 47.1127 50.7668L37.4783 43.8862C37.3347 43.782 37.1585 43.733 36.9817 43.7481C36.8049 43.7632 36.6395 43.8413 36.5156 43.9683C36.3898 44.0931 36.313 44.259 36.2993 44.4358C36.2856 44.6125 36.3359 44.7883 36.441 44.931L43.0977 54.0952C42.9783 54.2668 42.8664 54.4385 42.7619 54.6176L35.4335 53.1474L35.3141 51.4758C35.3141 51.4161 35.2992 51.3638 35.2843 51.3116L31.8589 40.2594C31.8589 39.6026 31.8738 36.2668 31.8589 33.334C31.8365 30.4011 30.3216 27.8564 29.7918 27.0579L29.9037 24.9683H30.15C30.6425 24.9683 31.1127 24.7444 31.4335 24.3638L34.2395 20.9907C34.2918 20.931 34.3291 20.8638 34.3738 20.7967C34.538 20.6623 34.6425 20.4608 34.6425 20.237C34.6425 20.1996 34.6276 20.1698 34.6201 20.1325C34.635 20.0504 34.6425 19.9608 34.6425 19.8788V17.2295C34.6425 16.2817 33.8888 15.5056 32.9634 15.5056H30.0007C30.9112 13.7743 32.0306 10.1847 28.7022 3.34144C28.5604 3.04293 28.2395 2.87875 27.9112 2.93099C27.5828 2.98323 27.3365 3.24443 27.2918 3.57278C27.1425 4.74443 26.3664 5.74443 24.9933 6.55786C24.7619 6.69965 24.5231 6.82652 24.2768 6.96084C23.2246 7.53547 22.1425 8.13249 21.3291 9.29667C20.1574 10.9832 20.053 13.6026 20.9186 15.5056H19.038C18.5903 15.5056 18.1649 15.6847 17.844 16.0131C17.5231 16.3489 17.344 16.8041 17.3515 17.2743C17.3664 17.722 17.3365 18.2967 17.3141 18.7967C17.2694 19.7967 17.2544 20.2146 17.3738 20.5205C17.3888 20.5653 17.4112 20.6026 17.4335 20.6399C17.5082 20.7519 19.2022 23.4086 19.9335 24.3414C20.2544 24.7444 20.7321 24.9758 21.2395 24.9758H21.7992L21.9709 26.8638L20.2768 27.0504C19.696 27.1149 19.1646 27.4074 18.7994 27.8636C18.4341 28.3198 18.265 28.9024 18.3291 29.4832C18.3888 30.0205 18.635 30.5131 19.038 30.8713C18.7321 31.3116 18.5903 31.8414 18.65 32.3788C18.7097 32.9161 18.9559 33.4086 19.3589 33.7668C19.0604 34.1922 18.9112 34.722 18.9709 35.2743C19.038 35.9011 19.3664 36.4385 19.8365 36.7892C19.6574 37.1325 19.5753 37.5355 19.6201 37.9459C19.6756 38.4398 19.9109 38.8961 20.2811 39.2278C20.6513 39.5594 21.1305 39.7433 21.6276 39.7444C21.7022 39.7444 21.7768 39.737 21.8515 39.7295L23.135 39.5877L23.3813 42.2444C23.3141 42.7146 23.1574 44.4683 23.7395 48.8265C24.3067 53.0952 25.5828 60.1922 25.9261 62.0653C24.538 63.0952 20.1276 66.7817 20.1276 72.1399C20.1276 73.3265 20.0828 74.4161 20.0455 75.3713C19.8962 79.1325 19.7843 81.8564 23.2246 82.4758C24.441 82.6922 25.1052 82.834 25.4634 82.9235C25.6052 84.4161 26.0679 89.4161 26.2395 91.4832C26.3216 92.4534 26.0903 93.0877 25.8291 93.819C25.5007 94.737 25.1201 95.7743 25.4335 97.4235C25.5082 97.8265 25.9037 98.0952 26.3067 98.0205C26.7097 97.9459 26.9783 97.5504 26.9037 97.1474C26.6649 95.9011 26.9335 95.1698 27.2395 94.3265C27.4037 93.8788 27.5679 93.3937 27.6649 92.8191C29.9783 91.7967 41.8515 86.3116 44.6798 80.6922C44.7602 80.5171 44.7697 80.3176 44.7061 80.1357C44.6426 79.9538 44.511 79.8036 44.3391 79.7167C44.1671 79.6297 43.9682 79.6128 43.784 79.6695C43.5998 79.7261 43.4448 79.852 43.3515 80.0205C40.9858 84.7295 30.9709 89.6549 27.7246 91.1549C27.553 89.0952 27.15 84.7519 26.9858 83.0579C34.538 81.7743 37.4485 74.1176 38.3515 70.9011L39.6425 72.3191C39.9112 72.6101 40.3589 72.6474 40.6649 72.4011L41.7544 71.5205L58.247 83.5653C56.941 85.6847 51.7246 93.334 42.8813 96.4086C42.715 96.4657 42.5742 96.5799 42.484 96.7309C42.3939 96.8819 42.3601 97.0599 42.3887 97.2334C42.4173 97.407 42.5065 97.5647 42.6404 97.6788C42.7743 97.7928 42.9442 97.8557 43.1201 97.8564C43.2022 97.8564 43.2843 97.8414 43.3664 97.8116C52.8291 94.5205 58.1947 86.528 59.553 84.2892L62.0828 85.3041C64.7321 86.5802 68.2843 88.8638 69.2768 92.2743C69.7619 93.9459 70.1574 95.8041 70.4559 97.7967C70.5082 98.1698 70.8291 98.431 71.1947 98.431C71.2321 98.431 71.2694 98.431 71.3067 98.4235C71.7171 98.3638 71.9932 97.9832 71.9335 97.5802C71.6276 95.5205 71.2171 93.5952 70.7171 91.8564C69.6052 88.0653 65.9559 85.5653 63.1052 84.1399ZM49.5231 51.5579C49.9634 51.4608 50.4112 51.4086 50.8589 51.3862V54.5579C49.553 54.528 48.3664 54.6623 47.2918 54.9683V52.3265C47.9485 52.0056 48.6873 51.737 49.5231 51.5579ZM59.9709 61.6101V64.125C59.9485 64.1101 59.941 64.0802 59.9186 64.0653C59.0604 63.4385 58.4112 61.9832 58.2321 61.4758C58.2246 61.4534 58.2097 61.4385 58.1947 61.4161C58.1798 61.3788 58.15 61.3414 58.1276 61.3041C58.0903 61.2519 58.053 61.2071 58.0007 61.1623C57.9858 61.1474 57.9783 61.125 57.9559 61.1101C55.8888 59.625 52.2395 57.1325 52.2022 57.1026C52.0306 56.9832 51.8141 56.9459 51.6127 56.9907C51.4112 57.0355 51.2321 57.1698 51.135 57.3489C51.1201 57.3788 49.4485 60.2593 45.2544 61.4086C45.247 61.4086 45.2395 61.4161 45.2321 61.4161C45.2097 61.4235 45.1947 61.4385 45.1724 61.4459C45.1052 61.4683 45.053 61.5056 44.9933 61.5429C44.9783 61.5504 44.9709 61.5579 44.9559 61.5653L42.4559 63.737V63.1474C42.4634 63.0131 42.6574 59.9534 44.8962 57.9161C46.3962 56.5504 48.4932 55.9235 51.1873 56.0504C51.2768 56.0579 58.1425 55.9011 59.9709 61.6101ZM52.0977 73.2444H52.0679C50.1947 73.2146 49.1425 71.8862 47.8141 70.1997C47.5753 69.9011 47.3365 69.5952 47.0903 69.2892C46.6316 68.7297 46.2886 68.0848 46.0811 67.3917C45.8735 66.6987 45.8056 65.9714 45.8813 65.2519L46.1574 62.7146C49.4037 61.6996 51.2171 59.7817 51.9932 58.7668C53.053 59.4982 55.2694 61.0205 56.8141 62.125C56.8589 62.7967 57.0007 64.3787 57.3589 66.9011C56.7022 68.8116 54.6649 73.2444 52.0977 73.2444ZM45.7992 55.5504C45.1052 55.8937 44.4634 56.3116 43.8962 56.834C43.5156 57.1773 43.1947 57.5504 42.9037 57.9235C43.0903 57.2817 43.3589 56.5802 43.7246 55.8788C43.7619 55.8265 43.7843 55.7668 43.8141 55.7071C44.2843 54.8638 44.9335 54.028 45.7992 53.3191V55.5504ZM42.4783 65.3937C42.5007 65.3937 42.5306 65.4086 42.553 65.4086C42.7246 65.4086 42.9037 65.3489 43.0455 65.222L44.5231 63.9385L44.4037 65.0802C44.2565 66.4588 44.5269 67.8498 45.1798 69.0728V72.1623L42.4858 70.1997V65.3937H42.4783ZM46.6649 71.1474C48.0455 72.9011 49.4783 74.6996 52.0455 74.737H52.0977C52.9186 74.737 53.6724 74.4608 54.3515 74.028V78.8788L46.6574 73.2594V71.1474H46.6649ZM55.8515 72.6997C55.9783 72.5579 56.0903 72.4086 56.2097 72.2593L58.1201 81.625L55.8515 79.9683V72.6997ZM61.4858 83.3937C60.7992 83.1101 60.2395 82.9011 59.8738 82.7817L57.4186 70.737C57.4037 70.6623 57.3664 70.6026 57.3365 70.5355C58.2694 68.8788 58.7768 67.3265 58.8216 67.1847C58.8589 67.0802 58.8664 66.9608 58.8515 66.8489C58.747 66.1026 58.6574 65.4534 58.5903 64.8713C58.7321 65.0131 58.8813 65.1399 59.038 65.2593C59.1724 65.3564 59.3216 65.4011 59.4783 65.4011C59.6649 65.4011 59.8365 65.3191 59.9709 65.1847V69.2146C59.9709 69.4534 60.0903 69.6847 60.2918 69.8265C60.4186 69.9161 61.4932 70.737 60.9709 72.1399L60.2246 74.1549C60.1791 74.2711 60.1663 74.3975 60.1873 74.5205L61.4858 83.3937ZM64.9858 61.1325L61.4709 61.8788V60.7146L64.9858 61.1325ZM66.5156 54.028L61.4709 57.1773V56.8116C61.4709 56.7444 61.4634 56.6773 61.441 56.6101C61.3094 56.1424 61.1293 55.6897 60.9037 55.2593L66.5156 54.028ZM59.9709 56.9161V58.4086C59.3291 57.5802 58.5679 56.9235 57.7768 56.4161V53.8041C58.7619 54.6026 59.5903 55.625 59.9709 56.9161ZM58.1201 52.1996C57.5903 51.8265 57.038 51.5056 56.4858 51.2295L61.3365 47.7668L58.1201 52.1996ZM56.2843 52.8116V55.6325C54.7843 54.9832 53.3141 54.7295 52.3515 54.6325V51.4608C53.1425 51.5579 53.9335 51.7594 54.7171 52.0728C55.2171 52.2668 55.7544 52.5131 56.2843 52.8116ZM51.4709 44.3713L52.2694 49.9385C51.6127 49.8713 50.9634 49.8788 50.3216 49.9385L51.4709 44.3713ZM40.344 47.7743L45.6574 51.5653C45.053 51.9683 44.5231 52.4161 44.0679 52.9011L40.344 47.7743ZM41.3515 58.0877L36.3216 54.8564L42.053 56.0056C41.7395 56.737 41.5082 57.4459 41.3515 58.0877ZM22.5604 10.1399C23.1649 9.26681 24.053 8.77428 25.0007 8.25935C25.2544 8.11756 25.5082 7.98323 25.7544 7.83398C26.7992 7.22204 27.5903 6.47577 28.1052 5.63249C30.6052 11.7071 28.9634 14.3862 28.3141 15.4459C28.2992 15.4683 28.2918 15.4758 28.2843 15.4982H22.635C21.6201 14.125 21.5679 11.5728 22.5604 10.1399ZM18.8589 17.222C18.8589 17.125 18.8962 17.0653 18.9261 17.0429C18.9579 17.0111 19.0005 16.9925 19.0455 16.9907H32.9559C33.0604 16.9907 33.1425 17.0952 33.1425 17.222V19.4907H18.7918C18.7992 19.2817 18.8067 19.0579 18.8216 18.8638C18.844 18.3265 18.8738 17.7295 18.8589 17.222ZM21.1201 23.4086C20.7246 22.9086 20.0007 21.8265 19.4485 20.9832H32.2992L30.2843 23.4086C30.247 23.4534 30.2022 23.4758 30.15 23.4758H21.2694C21.2022 23.4758 21.1574 23.4534 21.1201 23.4086ZM23.3141 24.9683H28.4112L28.2992 27.0653C28.2768 27.1474 28.2768 27.237 28.2843 27.3191L27.3888 44.1698C27.3735 44.4668 27.2452 44.7467 27.0301 44.9521C26.815 45.1575 26.5295 45.2728 26.2321 45.2743C25.6276 45.2743 25.1276 44.8191 25.0679 44.2146L24.6276 39.3788C25.5231 39.0877 26.1201 38.1996 26.0156 37.237C25.9933 37.0131 25.9261 36.7967 25.8365 36.5952C26.2446 36.3956 26.5812 36.0748 26.8002 35.6768C27.0193 35.2788 27.1101 34.8229 27.0604 34.3713C27.0007 33.8191 26.7395 33.334 26.3515 32.9832C26.6649 32.5429 26.7992 32.0131 26.7395 31.4758C26.6838 30.9411 26.4311 30.4463 26.0306 30.0877C26.3291 29.6623 26.4783 29.1325 26.4186 28.5802C26.3539 27.9995 26.0614 27.4682 25.6052 27.103C25.1491 26.7378 24.5666 26.5686 23.9858 26.6325L23.4634 26.6922L23.3141 24.9683ZM21.7022 38.2444C21.4037 38.2743 21.15 38.0653 21.1201 37.7743C21.0903 37.4832 21.2992 37.222 21.5828 37.1922C21.9933 37.1474 22.2918 36.7817 22.2395 36.3713C22.1873 35.9608 21.8216 35.6623 21.4186 35.7146L21.2544 35.7295C20.8664 35.7743 20.5156 35.4907 20.4709 35.1026C20.4261 34.7146 20.7097 34.3638 21.0977 34.3191C21.4783 34.2743 21.7619 33.9534 21.7619 33.5802C21.7619 33.5504 21.7619 33.528 21.7544 33.4982C21.7445 33.4008 21.7153 33.3064 21.6685 33.2204C21.6217 33.1345 21.5582 33.0587 21.4818 32.9976C21.4054 32.9364 21.3175 32.8911 21.2234 32.8643C21.1293 32.8375 21.0307 32.8297 20.9335 32.8414C20.747 32.8638 20.5604 32.8116 20.4112 32.6922C20.2619 32.5728 20.1724 32.4011 20.15 32.2146C20.1276 32.028 20.1798 31.8414 20.2992 31.6922C20.4186 31.5429 20.5903 31.4534 20.7768 31.431C21.1574 31.3862 21.441 31.0653 21.441 30.6922C21.441 30.6623 21.441 30.6399 21.4335 30.6101C21.4238 30.5126 21.3948 30.4181 21.348 30.3321C21.3012 30.246 21.2378 30.1702 21.1613 30.109C21.0848 30.0478 20.9969 30.0025 20.9027 29.9758C20.8085 29.9491 20.7099 29.9415 20.6127 29.9534C20.4186 29.9758 20.2395 29.9235 20.0903 29.8041C19.941 29.6847 19.8515 29.5131 19.8291 29.3265C19.7843 28.9385 20.0679 28.5877 20.4559 28.5429L22.7097 28.2967C22.7619 28.3041 22.8067 28.3191 22.8664 28.3116C22.9335 28.3041 22.9858 28.2817 23.0455 28.2594L24.15 28.1399C24.538 28.1026 24.8888 28.3788 24.9335 28.7668C24.9783 29.1549 24.6947 29.5056 24.3067 29.5504L22.4335 29.6847C22.0231 29.7146 21.7171 30.0728 21.747 30.4832C21.7768 30.8788 22.1052 31.1773 22.4932 31.1773H22.5455L24.441 31.0429C24.4485 31.0429 24.4485 31.0429 24.4559 31.0355H24.4709C24.6574 31.0131 24.844 31.0653 24.9933 31.1847C25.1425 31.3041 25.2321 31.4758 25.2544 31.6623C25.2768 31.8489 25.2246 32.0355 25.1052 32.1847C24.9858 32.334 24.8141 32.4235 24.6276 32.4459L22.7246 32.6549C22.6271 32.6651 22.5325 32.6945 22.4463 32.7413C22.3602 32.7881 22.284 32.8514 22.2224 32.9277C22.1607 33.0039 22.1146 33.0916 22.0868 33.1856C22.0591 33.2796 22.0501 33.3783 22.0604 33.4758C22.1052 33.8564 22.4261 34.1399 22.7992 34.1399C22.8291 34.1399 22.8515 34.1399 22.8813 34.1325L24.7843 33.9235C25.1724 33.8788 25.5306 34.1623 25.5679 34.5504C25.6127 34.9385 25.3291 35.2892 24.941 35.334L23.7843 35.4608H23.7768C23.3664 35.5056 23.0679 35.8713 23.1201 36.2817C23.1649 36.6922 23.538 36.9907 23.941 36.9385C24.0103 36.9302 24.0805 36.9359 24.1475 36.9552C24.2145 36.9744 24.277 37.007 24.3312 37.0508C24.3855 37.0946 24.4304 37.1488 24.4633 37.2103C24.4963 37.2717 24.5166 37.3392 24.5231 37.4086C24.553 37.6996 24.344 37.9608 24.053 37.9907L21.7022 38.2444ZM24.9783 46.4385C25.3515 46.6399 25.7768 46.7668 26.2395 46.7668C26.9261 46.7668 27.5753 46.5056 28.0679 46.0355C28.5661 45.5695 28.861 44.9261 28.8888 44.2444L29.6425 29.9758C30.0306 30.931 30.3664 32.1026 30.3738 33.334C30.3962 36.6026 30.3738 40.3564 30.3738 40.3638C30.3738 40.4385 30.3813 40.5131 30.4037 40.5877L33.8365 51.6698L34.538 61.3041C32.4634 66.6996 29.0455 73.4161 26.9858 73.4459C26.7694 73.4459 26.5977 73.3788 26.4634 73.1996C25.3515 71.7295 26.4932 65.9235 27.4783 62.6101C27.4783 62.6026 27.4783 62.5877 27.4858 62.5802C27.4933 62.5579 27.4933 62.528 27.4933 62.5056C27.5007 62.4385 27.5082 62.3713 27.4933 62.3116V62.2668C27.4783 62.1773 25.8813 53.5205 25.2321 48.6325C25.1201 47.7967 25.038 47.0728 24.9783 46.4385ZM26.3888 81.625C25.8888 81.431 25.0082 81.2668 23.4932 80.9907C21.4261 80.6176 21.3813 79.4385 21.538 75.4161C21.5753 74.4459 21.6201 73.3414 21.6201 72.125C21.6201 68.7146 23.8067 65.9982 25.4261 64.4385C24.7097 67.431 23.8589 72.237 25.2544 74.0877C25.6798 74.6474 26.2619 74.9459 26.9858 74.931C30.4261 74.8788 34.1798 66.3041 35.7619 62.2295L37.6947 66.4086C37.941 66.9385 37.941 67.5429 37.6947 68.0653L37.2544 69.028C37.2321 69.0802 37.2246 69.1325 37.2097 69.1847C37.2097 69.1922 37.2022 69.2071 37.1947 69.2146C37.1947 69.334 35.1798 80.4086 26.3888 81.625ZM40.2694 70.7967L38.8291 69.2071L39.0679 68.6922C39.4858 67.7668 39.4858 66.7071 39.0604 65.7892L36.3813 59.9907C36.2843 59.7892 36.1127 59.6474 35.9037 59.5877L35.6574 56.1996L41.0529 59.6773C40.9858 60.1996 40.9783 60.5205 40.9783 60.5355V70.237L40.2694 70.7967Z" fill="#99A9B3"/>
<path d="M45.4339 24.1702C45.8444 24.1702 46.1802 23.8343 46.1802 23.4239C46.1802 23.0134 45.8444 22.6776 45.4339 22.6776C43.1503 22.6776 41.2921 20.8194 41.2921 18.5358C41.2921 16.2523 43.1503 14.394 45.4414 14.394C45.4563 14.394 45.5235 14.4015 45.5309 14.4015C45.919 14.4015 46.21 14.1552 46.2772 13.797C46.5219 12.5533 47.1905 11.4331 48.169 10.6274C49.1476 9.82168 50.3753 9.38051 51.6429 9.37912C54.419 9.37912 56.7548 11.4612 57.0757 14.2149C57.1056 14.4537 57.2474 14.6627 57.4563 14.7821C57.6653 14.9015 57.9265 14.909 58.1429 14.8045C58.71 14.5358 59.3071 14.394 59.9265 14.394C61.7474 14.394 63.3369 15.5582 63.8817 17.297C64.0011 17.6776 64.3966 17.894 64.7847 17.797C65.0459 17.7299 65.2548 17.7 65.4563 17.7C66.9488 17.7 68.1578 18.9164 68.1578 20.4015C68.1578 21.894 66.9414 23.103 65.4563 23.103C65.0459 23.103 64.71 23.4388 64.71 23.8493C64.71 24.2597 65.0459 24.5955 65.4563 24.5955C67.7697 24.5955 69.6503 22.7149 69.6503 20.4015C69.6503 18.0881 67.7697 16.2075 65.4563 16.2075C65.3294 16.2075 65.2026 16.2149 65.0683 16.2299C64.1727 14.2149 62.1802 12.909 59.9265 12.909C59.4041 12.909 58.8966 12.9836 58.3966 13.1254C58.0134 11.6291 57.1432 10.3028 55.9231 9.35569C54.703 8.40852 53.2024 7.89429 51.6578 7.89404C50.1478 7.89504 48.679 8.38693 47.4729 9.29553C46.2668 10.2041 45.3888 11.4802 44.9712 12.9314C43.5648 13.0505 42.2545 13.6933 41.2995 14.7326C40.3445 15.7719 39.8145 17.1319 39.8145 18.5433C39.7996 21.6478 42.322 24.1702 45.4339 24.1702Z" fill="#99A9B3"/>
<path d="M62.262 27.9612C61.9411 27.9612 61.6277 27.9985 61.3217 28.0657C61.0031 27.0111 60.3555 26.0862 59.4736 25.4261C58.5916 24.766 57.5217 24.4055 56.4201 24.3971C55.3185 24.3888 54.2432 24.7331 53.3513 25.3798C52.4595 26.0264 51.798 26.9414 51.4635 27.991C49.3739 28.2373 47.7471 30.0209 47.7471 32.1851C47.7471 32.5955 48.0829 32.9313 48.4933 32.9313C48.9038 32.9313 49.2396 32.5955 49.2396 32.1851C49.2396 30.6776 50.4635 29.4537 51.9486 29.4537L52.0307 29.4612C52.4113 29.4761 52.7172 29.2149 52.7844 28.8567C53.1202 27.1403 54.6351 25.8866 56.3889 25.8866C58.2545 25.8866 59.8217 27.2821 60.0307 29.1328C60.0605 29.3716 60.2023 29.5806 60.4112 29.7C60.6202 29.8194 60.8739 29.8269 61.0978 29.7224C61.471 29.5433 61.8665 29.4537 62.2695 29.4537C62.8509 29.4515 63.4177 29.6359 63.8865 29.9798C64.3553 30.3237 64.7014 30.8089 64.8739 31.3642C64.9933 31.7597 65.4112 31.9761 65.8068 31.8567C66.2023 31.7373 66.4187 31.3119 66.2993 30.9239C66.032 30.063 65.4955 29.3107 64.7688 28.7774C64.042 28.2441 63.1634 27.958 62.262 27.9612ZM78.2695 35.5433C75.1053 35.1328 73.262 36.9836 72.3217 38.8642C71.3739 36.9761 69.5232 35.1328 66.3739 35.5433C65.9635 35.5955 65.6799 35.9687 65.7321 36.3791C65.7844 36.7895 66.165 37.0806 66.568 37.0209C70.7247 36.4836 71.553 41.1254 71.5904 41.3269C71.5904 41.3343 71.5978 41.3418 71.5978 41.3567C71.6053 41.394 71.6202 41.4313 71.6351 41.4687C71.6575 41.5209 71.6724 41.5731 71.7023 41.6179C71.7247 41.6478 71.7471 41.6701 71.7695 41.7C71.8068 41.7448 71.8441 41.7821 71.8889 41.8119C71.9187 41.8343 71.9486 41.8492 71.9784 41.8642C72.0306 41.894 72.0829 41.909 72.1426 41.9239C72.165 41.9313 72.1799 41.9388 72.1948 41.9463C72.2321 41.9537 72.2695 41.9537 72.3068 41.9537H72.3142C72.3515 41.9537 72.3963 41.9537 72.4336 41.9463C72.456 41.9463 72.4709 41.9313 72.4933 41.9239C72.5456 41.909 72.5978 41.894 72.6426 41.8642C72.6799 41.8492 72.7098 41.8269 72.7471 41.8045C72.7918 41.7746 72.8217 41.7373 72.859 41.7C72.8889 41.6701 72.9113 41.6403 72.9336 41.6104C72.9635 41.5657 72.9784 41.5209 72.9933 41.4761C73.0083 41.4388 73.0232 41.4015 73.0381 41.3567C73.0381 41.3492 73.0456 41.3418 73.0456 41.3269C73.0754 41.1328 73.8963 36.491 78.068 37.0209C78.1651 37.0345 78.264 37.0286 78.3588 37.0036C78.4537 36.9786 78.5426 36.935 78.6204 36.8752C78.6982 36.8155 78.7634 36.7408 78.812 36.6557C78.8607 36.5705 78.8919 36.4765 78.9038 36.3791C78.9185 36.2824 78.9136 36.1837 78.8895 36.0889C78.8654 35.994 78.8225 35.905 78.7633 35.8271C78.7042 35.7492 78.63 35.6839 78.5452 35.6351C78.4603 35.5864 78.3666 35.5551 78.2695 35.5433ZM82.0605 26.3418C80.0978 26.0881 78.8739 27.0731 78.1724 28.2075C77.4635 27.0731 76.2396 26.0881 74.2918 26.3418C73.8814 26.394 73.5978 26.7672 73.6501 27.1776C73.7023 27.5881 74.068 27.8791 74.4859 27.8194C76.8814 27.506 77.3963 30.0881 77.4486 30.3866C77.4486 30.394 77.456 30.4015 77.456 30.4164C77.4635 30.4537 77.4784 30.491 77.4933 30.5284C77.5157 30.5806 77.5307 30.6328 77.5605 30.6776C77.5829 30.7075 77.6053 30.7298 77.6277 30.7597C77.665 30.8045 77.7023 30.8418 77.7545 30.8791C77.7844 30.9015 77.8142 30.9164 77.8441 30.9313C77.8963 30.9612 77.956 30.9836 78.0157 30.9985C78.0307 31.006 78.0456 31.0134 78.068 31.0209C78.1053 31.0284 78.1426 31.0284 78.1799 31.0284H78.1948C78.2321 31.0284 78.2769 31.0284 78.3142 31.0209L78.3814 30.9985C78.4336 30.9836 78.4784 30.9687 78.5232 30.9463C78.5605 30.9239 78.5978 30.909 78.6277 30.8866C78.665 30.8567 78.7023 30.8269 78.7321 30.7895C78.762 30.7597 78.7918 30.7298 78.8142 30.6925C78.8441 30.6478 78.859 30.603 78.8739 30.5582C78.8889 30.5209 78.9112 30.4836 78.9187 30.4388C78.9187 30.4313 78.9262 30.4239 78.9262 30.4164C78.9784 30.1179 79.4859 27.5358 81.8814 27.8492C81.9785 27.8623 82.0772 27.8561 82.1718 27.8309C82.2665 27.8057 82.3552 27.762 82.4329 27.7023C82.5106 27.6427 82.5757 27.5682 82.6245 27.4833C82.6733 27.3984 82.7048 27.3046 82.7172 27.2075C82.7545 26.7672 82.471 26.394 82.0605 26.3418Z" fill="#99A9B3"/>
</svg>
